<?xml version="1.0" encoding="UTF-8"?>
<svg version="1.1" xmlns="http://www.w3.org/2000/svg" width="1024" height="1024">
<path d="M0 0 C337.92 0 675.84 0 1024 0 C1024 337.92 1024 675.84 1024 1024 C686.08 1024 348.16 1024 0 1024 C0 686.08 0 348.16 0 0 Z " fill="#0E2028" transform="translate(0,0)"/>
<path d="M0 0 C3.69318093 3.53546502 6.83104809 7.26425095 9.875 11.375 C13.59820981 16.31062722 17.46535141 20.78172224 22 25 C27 30 27 30 28.4765625 31.546875 C45.55435067 49.19122486 67.6116669 62.27095231 90 72 C91.794375 72.79857422 91.794375 72.79857422 93.625 73.61328125 C114.70721695 82.55935357 136.26861805 86.02064341 159 87 C158.97905273 86.44763672 158.95810547 85.89527344 158.93652344 85.32617188 C158.18812249 62.45731261 162.27456261 43.33063844 178.1953125 25.90234375 C184.3506612 19.43063778 190.9714702 14.76997532 198.875 10.6875 C199.49850342 10.36160889 200.12200684 10.03571777 200.7644043 9.69995117 C211.19452546 4.5905878 221.75843918 3.46533904 233.25 3.5625 C235.16752075 3.57603516 235.16752075 3.57603516 237.1237793 3.58984375 C259.1028954 3.99218186 276.67470411 11.26806276 292 27 C292.77150391 27.90298828 292.77150391 27.90298828 293.55859375 28.82421875 C294.94678742 30.16807655 294.94678742 30.16807655 296.953125 30.25 C311.56871237 28.65918777 323.63159426 22.48176502 336 15 C336.97710938 14.41476562 337.95421875 13.82953125 338.9609375 13.2265625 C339.63382813 12.82179688 340.30671875 12.41703125 341 12 C340.56426835 29.54810202 330.38469348 45.11376168 318 57 C327.17111895 55.72133438 335.43129192 52.33605774 344 49 C345.485 48.505 345.485 48.505 347 48 C346.50893563 59.54001272 336.89082708 68.34556371 329 76 C325.46652611 79.16584201 321.74554237 82.0906396 318 85 C316.30673411 86.69326589 316.81080367 88.86715803 316.75390625 91.1875 C316.72248535 92.27047363 316.69106445 93.35344727 316.65869141 94.46923828 C316.61107666 96.21696533 316.61107666 96.21696533 316.5625 98 C315.06028424 143.07260414 303.59123702 193.79292806 272 228 C271.34 228 270.68 228 270 228 C269.68095703 228.79470703 269.68095703 228.79470703 269.35546875 229.60546875 C267.47275211 232.93142062 264.92112498 235.55232179 262.3125 238.3125 C261.49676514 239.18297974 261.49676514 239.18297974 260.66455078 240.07104492 C259.11505971 241.71919879 257.5584431 243.36031608 256 245 C255.34128906 245.70125 254.68257812 246.4025 254.00390625 247.125 C231.71947276 270.21103182 199.48208485 286.19878788 169 295 C168.24638184 295.21994629 167.49276367 295.43989258 166.71630859 295.66650391 C160.8573666 297.3403119 154.96027157 298.73714104 149 300 C148.07832031 300.19899902 147.15664063 300.39799805 146.20703125 300.60302734 C116.65697788 306.68950089 82.59825173 306.87394678 53 301 C51.94377441 300.79068848 50.88754883 300.58137695 49.79931641 300.36572266 C22.56859607 294.79660877 -8.30777721 286.67328758 -29 267 C-29.33 266.34 -29.66 265.68 -30 265 C-29.12601562 264.98018066 -28.25203125 264.96036133 -27.3515625 264.93994141 C32.02621337 264.72731425 32.02621337 264.72731425 84 239 C84.66 238.01 85.32 237.02 86 236 C86.66 236 87.32 236 88 236 C88 235.34 88 234.68 88 234 C87.02546875 234.07347656 86.0509375 234.14695312 85.046875 234.22265625 C80.27214548 234.21425848 76.51373895 232.43592906 72.25 230.4375 C71.45577637 230.07180908 70.66155273 229.70611816 69.84326172 229.3293457 C58.19138573 223.85692624 49.18649279 216.86971717 40 208 C39.3296875 207.38125 38.659375 206.7625 37.96875 206.125 C26.91181805 195.67117343 17.92630915 180.72365931 14 166 C14 165.01 14 164.02 14 163 C14.59280762 163.13712402 15.18561523 163.27424805 15.79638672 163.41552734 C22.26220818 164.82146906 28.52081453 165.40238701 35.125 165.625 C36.55972656 165.68300781 36.55972656 165.68300781 38.0234375 165.7421875 C40.34878199 165.83520128 42.67414335 165.92103771 45 166 C45 165.34 45 164.68 45 164 C43.80375 163.690625 42.6075 163.38125 41.375 163.0625 C22.11948285 156.49332513 6.97417801 139.72685107 -2.01953125 121.98925781 C-7.71566903 110.30557753 -10.44641871 100.04534662 -10 87 C-5.14561186 88.03454173 -0.38762053 89.16455095 4.375 90.5625 C9.88509843 92.10563931 15.29979699 92.68025941 21 93 C20.59910156 92.58492188 20.19820313 92.16984375 19.78515625 91.7421875 C3.93858998 74.56609073 -4.42854948 53.07773167 -4.3125 29.75 C-4.31048584 28.65478027 -4.30847168 27.55956055 -4.30639648 26.43115234 C-4.19172541 17.15446849 -2.94216881 8.82650643 0 0 Z " fill="#AFAFAF" transform="translate(331,252)"/>
<path d="M0 0 C7.26 0 14.52 0 22 0 C26.50349922 11.25874806 26.50349922 11.25874806 27.484375 15.8671875 C27.80341797 17.34832031 27.80341797 17.34832031 28.12890625 18.859375 C28.33386719 19.85453125 28.53882813 20.8496875 28.75 21.875 C28.97042969 22.89335938 29.19085938 23.91171875 29.41796875 24.9609375 C30.2954801 29.10322709 31 32.74616789 31 37 C31.66 37 32.32 37 33 37 C33.10441406 35.78054688 33.20882812 34.56109375 33.31640625 33.3046875 C34.00509726 27.12462368 35.46786612 21.15860481 36.9375 15.125 C37.20240234 13.99835937 37.46730469 12.87171875 37.74023438 11.7109375 C37.99998047 10.63328125 38.25972656 9.555625 38.52734375 8.4453125 C38.87913696 6.98375732 38.87913696 6.98375732 39.23803711 5.49267578 C40 3 40 3 42 0 C44.7885289 -0.22107787 47.34653181 -0.28107535 50.125 -0.1875 C50.87910156 -0.17396484 51.63320313 -0.16042969 52.41015625 -0.14648438 C54.27374127 -0.11109985 56.13695978 -0.05729167 58 0 C60.08448845 5.26607609 61.86710711 10.59879266 63.5625 16 C63.77221436 16.66386719 63.98192871 17.32773437 64.19799805 18.01171875 C68 30.23576293 68 30.23576293 68 36 C68.66 36 69.32 36 70 36 C70.12955078 34.83210937 70.12955078 34.83210937 70.26171875 33.640625 C73.30769231 9.38461538 73.30769231 9.38461538 78 0 C83.61 0 89.22 0 95 0 C95 5.36434388 94.86376656 8.40411606 93.5 13.3125 C93.24367798 14.23881226 93.24367798 14.23881226 92.98217773 15.18383789 C89.88237751 26.1878024 86.4048484 37.08773997 83 48 C82.46863956 49.70829899 81.93737822 51.4166288 81.40625 53.125 C78.30368193 63.08895421 78.30368193 63.08895421 77 67 C72.38 67 67.76 67 63 67 C60.78637143 62.07227031 59.04225013 57.191502 57.5625 52 C57.35149658 51.27176025 57.14049316 50.54352051 56.9230957 49.79321289 C54.84134173 42.55753365 52.89832291 35.2857421 51 28 C50.67 28 50.34 28 50 28 C49.80889648 28.75506836 49.61779297 29.51013672 49.42089844 30.28808594 C48.53518708 33.77657362 47.64263034 37.2632766 46.75 40.75 C46.44964844 41.93722656 46.14929688 43.12445312 45.83984375 44.34765625 C43.86801622 52.0251975 41.58913107 59.50755875 39 67 C33.06 67 27.12 67 21 67 C17.24341708 59.14368476 14.52023247 51.01784013 11.79101562 42.76416016 C11.00797366 40.39908342 10.21546047 38.037338 9.421875 35.67578125 C5.50320309 23.93849313 1.75440428 12.28082995 0 0 Z " fill="#F8F9F9" transform="translate(312,676)"/>
<path d="M0 0 C5.8264786 4.31176629 9.30532724 8.69887902 12.26953125 15.26953125 C12.63304687 15.84960938 12.9965625 16.4296875 13.37109375 17.02734375 C16.11511598 23.87546879 15.23974688 34.81370841 12.83203125 41.70703125 C8.07398198 51.55938768 -0.24321822 58.99899356 -10.48046875 62.58203125 C-20.70633955 64.61921645 -29.68735898 63.6279485 -38.73046875 58.26953125 C-46.85280679 51.90703312 -52.79020479 43.50001393 -54.73046875 33.26953125 C-55.73968973 23.22390089 -53.4157248 15.64146059 -47.48046875 7.51953125 C-35.23730031 -7.22436947 -16.43365943 -10.41503738 0 0 Z " fill="#F8F9F9" transform="translate(742.73046875,680.73046875)"/>
<path d="M0 0 C6.6 0 13.2 0 20 0 C22.59682231 5.19364462 24.70039166 9.60066474 26.5078125 14.984375 C26.71936981 15.60725403 26.93092712 16.23013306 27.14889526 16.87188721 C27.81302724 18.82947435 28.46955824 20.78948794 29.125 22.75 C29.78860971 24.72441987 30.45391638 26.69822765 31.12252808 28.67095947 C31.72488178 30.44963471 32.32182692 32.23013889 32.91845703 34.01074219 C33.80571256 36.46301231 34.76606002 38.70869748 36 41 C38.52051446 34.96559184 40.78265381 28.85966905 42.9375 22.6875 C50.26169341 1.73830659 50.26169341 1.73830659 52 0 C53.4887186 -0.08669432 54.981445 -0.10703494 56.47265625 -0.09765625 C57.37177734 -0.09443359 58.27089844 -0.09121094 59.19726562 -0.08789062 C60.61555664 -0.07532227 60.61555664 -0.07532227 62.0625 -0.0625 C63.01189453 -0.05798828 63.96128906 -0.05347656 64.93945312 -0.04882812 C67.29303065 -0.0370011 69.64648477 -0.02052025 72 0 C71.46273225 5.40849539 70.49792381 10.25784754 68.625 15.375 C68.23308472 16.46264648 68.23308472 16.46264648 67.83325195 17.57226562 C65.0789048 25.04934635 61.95838348 32.37046521 58.81860352 39.69213867 C55.70500437 46.95305809 52.65313562 54.23623291 49.6484375 61.54296875 C49.27078751 62.46002594 48.89313751 63.37708313 48.50404358 64.32192993 C46.97951693 68.02458601 45.45516118 71.72727978 43.93954468 75.43359375 C42.87146098 78.0447216 41.79754398 80.6533859 40.72265625 83.26171875 C40.24818558 84.42902779 40.24818558 84.42902779 39.76412964 85.61991882 C37.82462264 90.30963892 35.76469658 94.73400447 33 99 C30.23434618 99.92188461 28.61716298 100.11785222 25.76953125 100.09765625 C24.96708984 100.09443359 24.16464844 100.09121094 23.33789062 100.08789062 C22.50451172 100.07951172 21.67113281 100.07113281 20.8125 100.0625 C19.96751953 100.05798828 19.12253906 100.05347656 18.25195312 100.04882812 C16.16793845 100.03705403 14.08396023 100.0191189 12 100 C13.25624535 91.98813418 15.82023709 85.3202301 19.34179688 78.05664062 C19.69693359 77.27353516 20.05207031 76.49042969 20.41796875 75.68359375 C20.74563232 74.99837646 21.0732959 74.31315918 21.41088867 73.60717773 C23.02517695 66.46296535 20.42756358 59.59555367 17.796875 53.01171875 C17.31737396 51.77504204 17.31737396 51.77504204 16.82818604 50.51338196 C15.81218473 47.90069467 14.78125811 45.29419724 13.75 42.6875 C13.07325841 40.95154595 12.39746948 39.21522019 11.72265625 37.47851562 C8.56537448 29.37860965 5.35304985 21.31060015 1.91894531 13.32348633 C-0.02576862 8.40641871 0 5.6882723 0 0 Z " fill="#F8F9F9" transform="translate(770,676)"/>
<path d="M0 0 C6.93 0 13.86 0 21 0 C24.89129126 11.58498641 28.77850159 23.17162544 32.5 34.8125 C32.75475098 35.59923096 33.00950195 36.38596191 33.27197266 37.1965332 C34.23630005 40.23852323 35 42.78820039 35 46 C38.07377747 44.46311127 38.19790339 42.12391466 39.296875 38.92578125 C39.62048004 37.99189323 39.62048004 37.99189323 39.95062256 37.03913879 C40.64330711 35.02920653 41.32347812 33.01542631 42 31 C42.22002686 30.34594177 42.44005371 29.69188354 42.66674805 29.01800537 C44.44163059 23.72703516 46.18778423 18.42664498 47.92675781 13.1237793 C48.5788132 11.13765256 49.23448323 9.15274854 49.890625 7.16796875 C50.27250977 6.00547607 50.65439453 4.8429834 51.04785156 3.64526367 C52 1 52 1 53 0 C54.4887186 -0.08669432 55.981445 -0.10703494 57.47265625 -0.09765625 C58.37177734 -0.09443359 59.27089844 -0.09121094 60.19726562 -0.08789062 C61.61555664 -0.07532227 61.61555664 -0.07532227 63.0625 -0.0625 C64.4865918 -0.05573242 64.4865918 -0.05573242 65.93945312 -0.04882812 C68.29303065 -0.0370011 70.64648477 -0.02052025 73 0 C72.64161985 10.33564323 70.88365869 19.84017212 68.25 29.8125 C67.885207 31.22542689 67.52103538 32.63851436 67.1574707 34.05175781 C66.12567732 38.04018394 65.06682274 42.0207984 64 46 C63.59563721 47.51376221 63.59563721 47.51376221 63.18310547 49.05810547 C59.10546497 64.14066288 59.10546497 64.14066288 56 67 C52.98770282 67.57355883 50.01336556 67.46404077 46.95703125 67.390625 C45.63163582 67.38213531 45.63163582 67.38213531 44.27946472 67.37347412 C41.45659257 67.35107867 38.63498862 67.30087727 35.8125 67.25 C33.89910687 67.22993906 31.98569385 67.21168758 30.07226562 67.1953125 C25.38102158 67.15120357 20.69072582 67.08215485 16 67 C14.07317162 59.41883313 12.25908856 51.82318511 10.5625 44.1875 C8.58500777 35.3919423 6.39976835 26.69079455 4 18 C3.24453093 15.25146259 2.4959101 12.50114464 1.75 9.75 C1.41484375 8.52796875 1.0796875 7.3059375 0.734375 6.046875 C0 3 0 3 0 0 Z " fill="#F9FAFA" transform="translate(187,676)"/>
<path d="M0 0 C5.19001286 4.26734391 9.52284065 9.60627137 10.8125 16.3125 C11.48567073 27.3027439 11.48567073 27.3027439 8.8125 31.3125 C6.14350182 32.27396126 3.59891887 32.45371775 0.77832031 32.51782227 C-0.00218689 32.53776749 -0.78269409 32.55771271 -1.58685303 32.57826233 C-2.41928528 32.59497482 -3.25171753 32.61168732 -4.109375 32.62890625 C-5.39935394 32.6600779 -5.39935394 32.6600779 -6.71539307 32.69187927 C-9.45601598 32.75713739 -12.19673275 32.81614917 -14.9375 32.875 C-16.7981867 32.91820781 -18.65886398 32.96182282 -20.51953125 33.00585938 C-25.07542523 33.11279442 -29.6314134 33.21412851 -34.1875 33.3125 C-33.76155412 34.75346586 -33.32123367 36.19018712 -32.875 37.625 C-32.50955078 38.82576172 -32.50955078 38.82576172 -32.13671875 40.05078125 C-31.12394577 42.46393168 -30.21714958 43.68376886 -28.1875 45.3125 C-19.98561835 48.04646055 -11.00618156 46.99842771 -3.37109375 43.1875 C-0.78020866 42.14929202 1.04357694 42.02388261 3.8125 42.3125 C6.625 44.3125 6.625 44.3125 8.8125 46.3125 C8.30224172 50.77725991 6.78773272 52.99260659 3.8125 56.3125 C1.19140625 58.296875 1.19140625 58.296875 -1.625 60.0625 C-3.01525391 60.95195313 -3.01525391 60.95195313 -4.43359375 61.859375 C-11.50509773 65.59072178 -20.85238247 65.6516755 -28.38671875 63.32421875 C-37.70377935 59.08919121 -44.76727478 52.51968466 -48.75 43 C-51.97311056 32.60951573 -50.90869866 21.79043399 -46.25 12.0625 C-44.78050375 9.28739183 -43.32133059 6.64031519 -41.1875 4.3125 C-40.5275 4.3125 -39.8675 4.3125 -39.1875 4.3125 C-39.1875 3.6525 -39.1875 2.9925 -39.1875 2.3125 C-37.6484375 1.09375 -37.6484375 1.09375 -35.5625 -0.1875 C-34.88960937 -0.6103125 -34.21671875 -1.033125 -33.5234375 -1.46875 C-22.52183553 -7.20871624 -10.62082639 -5.62279044 0 0 Z " fill="#F7F7F8" transform="translate(663.1875,679.6875)"/>
<path d="M0 0 C5.33967223 4.33258277 7.46137473 8.47945706 8.3125 15.27734375 C8.45010812 16.72541971 8.57498406 18.17475859 8.6875 19.625 C8.74542725 20.33124512 8.80335449 21.03749023 8.86303711 21.76513672 C9.11494063 26.801999 9.11494063 26.801999 7.37890625 29.23046875 C-0.64152567 34.55818971 -14.29605115 32.44086322 -23.5625 32.375 C-25.40618164 32.36823242 -25.40618164 32.36823242 -27.28710938 32.36132812 C-30.27479356 32.34970289 -33.26236855 32.33336559 -36.25 32.3125 C-35.82405412 33.75346586 -35.38373367 35.19018712 -34.9375 36.625 C-34.57205078 37.82576172 -34.57205078 37.82576172 -34.19921875 39.05078125 C-33.18644577 41.46393168 -32.27964958 42.68376886 -30.25 44.3125 C-21.9002942 47.09573527 -13.19309191 45.80687927 -5.36328125 42.21875 C-2.45557484 40.9718223 -0.3585313 40.73416859 2.75 41.3125 C5.625 43.3125 5.625 43.3125 7.75 45.3125 C6.67471781 50.89663591 3.19388741 54.64541966 -1.4375 57.8046875 C-3.67093043 59.07985555 -5.91965779 60.22585591 -8.25 61.3125 C-9.178125 61.745625 -10.10625 62.17875 -11.0625 62.625 C-19.68443664 64.48463339 -27.71666796 64.11026454 -35.25 59.3125 C-43.02047696 53.46732839 -48.94997566 46.94678562 -51.25 37.3125 C-52.4900801 26.51816636 -52.1758447 16.1769816 -45.671875 7.11328125 C-33.95933308 -7.15808177 -15.56313055 -10.46093207 0 0 Z " fill="#F8F9F9" transform="translate(542.25,680.6875)"/>
<path d="M0 0 C1.07507813 0.45246094 1.07507813 0.45246094 2.171875 0.9140625 C5.11890805 2.98584889 6.90663333 5.06141711 8.25 8.375 C8.81535393 12.71701505 8.73890966 17.0219314 8.67578125 21.39453125 C8.67249313 22.64884445 8.66920502 23.90315765 8.66581726 25.19548035 C8.65541161 27.83945322 8.63772944 30.48205378 8.60668945 33.12573242 C8.56691317 36.51990726 8.54904534 39.91372874 8.53938007 43.30811024 C8.52943307 46.54529875 8.50919258 49.78239737 8.48828125 53.01953125 C8.48089432 54.24235306 8.47350739 55.46517487 8.46589661 56.72505188 C8.45306137 57.84679306 8.44022614 58.96853424 8.42700195 60.12426758 C8.41715775 61.11654861 8.40731354 62.10882965 8.39717102 63.13117981 C8.25 65.375 8.25 65.375 7.25 66.375 C4.14769856 66.46373532 1.06712641 66.49025687 -2.03515625 66.47265625 C-3.27211243 66.47114563 -3.27211243 66.47114563 -4.53405762 66.46960449 C-7.62688581 66.46435592 -10.71969424 66.45039477 -13.8125 66.4375 C-20.721875 66.416875 -27.63125 66.39625 -34.75 66.375 C-34.75 44.265 -34.75 22.155 -34.75 -0.625 C-4.45939597 -2.00184564 -4.45939597 -2.00184564 0 0 Z " fill="#FAFCFC" transform="translate(455.75,676.625)"/>
<path d="M0 0 C2.98838318 2.65254583 5.21547127 5.43094254 7 9 C7.039992 10.99960012 7.04346799 13.00047242 7 15 C2.10608345 16.63130552 -2.89306883 16.52449563 -8 16 C-11.125 14.0625 -11.125 14.0625 -13 12 C-15.95664519 10.5216774 -18.74229737 10.93967217 -22 11 C-22.33 12.65 -22.66 14.3 -23 16 C-18.14234443 19.30320579 -13.37629057 21.75947368 -7.9375 24 C-0.7955592 27.00190667 5.72748884 29.78264125 9.33203125 37.0546875 C10.94895981 41.76363734 10.92210623 45.78838585 9 50.3984375 C5.00818369 57.22535061 -0.48183632 60.15667338 -7.82421875 62.609375 C-17.31212522 64.31276934 -28.38955732 64.07370395 -36.73046875 58.93359375 C-40.76286159 55.91676651 -42.89077483 52.46182247 -45 48 C-45 46.68 -45 45.36 -45 44 C-35.55509356 41.43866944 -35.55509356 41.43866944 -32 42 C-29.96868328 43.28511874 -27.96722008 44.61876037 -26 46 C-21.5103501 47.73792899 -16.56781398 47.53372391 -12.0625 46 C-11.0415625 45.505 -11.0415625 45.505 -10 45 C-10.13279673 43.06485558 -10.13279673 43.06485558 -11 41 C-13.11695122 39.54930649 -13.11695122 39.54930649 -15.8125 38.5 C-16.80378906 38.0771875 -17.79507813 37.654375 -18.81640625 37.21875 C-21.93357287 36.02542977 -25.06498618 34.9960699 -28.25 34 C-34.18758097 32.08241549 -38.83530986 29.92207581 -42.65234375 24.76953125 C-45.39945054 19.12402774 -45.2232086 11.62638104 -43.2265625 5.70703125 C-39.6709021 -0.0047211 -32.88349732 -3.03989607 -26.53515625 -4.609375 C-16.81587022 -6.10695374 -8.54808757 -5.07582157 0 0 Z " fill="#F6F7F8" transform="translate(898,680)"/>
<path d="M0 0 C7.26 0 14.52 0 22 0 C22 7.59 22 15.18 22 23 C27.28 23 32.56 23 38 23 C38 29.27 38 35.54 38 42 C32.39 42 26.78 42 21 42 C21 57.84 21 73.68 21 90 C14.07 90 7.14 90 0 90 C0 73.5 0 57 0 40 C-3.3 40 -6.6 40 -10 40 C-10 34.39 -10 28.78 -10 23 C-6.7 23 -3.4 23 0 23 C0 15.41 0 7.82 0 0 Z " fill="#FAFBFB" transform="translate(134,653)"/>
<path d="M0 0 C13.53 0 27.06 0 41 0 C41 21.78 41 43.56 41 66 C33.08798382 68.63733873 24.33999734 67 16 67 C16 51.49 16 35.98 16 20 C10.06 20 4.12 20 -2 20 C-3.12179894 17.75640212 -3.19724279 16.43027817 -3.25 13.9375 C-3.27578125 13.22464844 -3.3015625 12.51179687 -3.328125 11.77734375 C-2.84948539 7.72600133 -1.29005703 3.87017108 0 0 Z " fill="#FAFBFC" transform="translate(556,676)"/>
<path d="M0 0 C7.59 0 15.18 0 23 0 C23 21.45 23 42.9 23 65 C16.13624657 68.43187671 7.67390962 66 0 66 C0 44.22 0 22.44 0 0 Z " fill="#FBFCFC" transform="translate(276,677)"/>
<path d="M0 0 C4.38146147 2.1151883 7.19904067 4.87365094 10 8.8125 C11.80428546 14.56365992 11.87898571 19.672468 9.4375 25.25 C7.10713636 29.3240623 4.34946509 32.14570938 0 34 C-5.26709782 35.05341956 -9.93329414 34.37123816 -14.42578125 31.38671875 C-18.06169047 28.18387068 -20.54228871 24.53702831 -21.41015625 19.7265625 C-21.64238333 13.80982039 -20.31605536 8.98249865 -16.62890625 4.234375 C-11.80795047 -0.71375228 -6.65153493 -1.43146376 0 0 Z " fill="#0E1E26" transform="translate(728,693)"/>
<path d="M0 0 C0.33 0 0.66 0 1 0 C1 17.49 1 34.98 1 53 C-12.2 53 -25.4 53 -39 53 C-35.76866397 50.57649797 -33.64082275 49.28470881 -30 47.875 C-29.154375 47.54242187 -28.30875 47.20984375 -27.4375 46.8671875 C-25.3015372 46.10727766 -23.20881938 45.50107477 -21 45 C-21 44.34 -21 43.68 -21 43 C-18.86929646 41.19254422 -16.61872543 39.59204709 -14.359375 37.94921875 C-3.02114423 28.58203803 -1.75593437 13.64775005 0 0 Z " fill="#010203" transform="translate(1023,971)"/>
<path d="M0 0 C12.87 0 25.74 0 39 0 C39 17.16 39 34.32 39 52 C38.67 52 38.34 52 38 52 C38 48.04 38 44.08 38 40 C37.34 40 36.68 40 36 40 C35.67 36.37 35.34 32.74 35 29 C34.34 29 33.68 29 33 29 C32.75765625 28.48050781 32.5153125 27.96101563 32.265625 27.42578125 C30.2181453 23.1654485 28.01938027 19.66639032 25 16 C25 15.34 25 14.68 25 14 C24.4225 13.9175 23.845 13.835 23.25 13.75 C21 13 21 13 19.375 11.25 C14.11988431 6.27146935 6.63342417 3.73989259 0 1 C0 0.67 0 0.34 0 0 Z " fill="#010102" transform="translate(985,0)"/>
<path d="M0 0 C2.30626216 3.07501621 3.91184686 5.60555341 5.5625 9 C5.97628906 9.845625 6.39007813 10.69125 6.81640625 11.5625 C7.20699219 12.366875 7.59757813 13.17125 8 14 C8.66486304 15.33423362 9.33086763 16.66790237 10 18 C10.66 18 11.32 18 12 18 C12.61875 18.804375 13.2375 19.60875 13.875 20.4375 C16.02540985 23.03064129 16.75394458 23.65220835 20 24 C20 24.66 20 25.32 20 26 C21.32 26.33 22.64 26.66 24 27 C24 27.66 24 28.32 24 29 C29.28 30.32 34.56 31.64 40 33 C40 33.33 40 33.66 40 34 C26.8 34 13.6 34 0 34 C0 22.78 0 11.56 0 0 Z " fill="#000102" transform="translate(0,990)"/>
<path d="M0 0 C3.18563872 2.05296717 4.38205676 3.31586097 5.8125 6.8125 C6.35473844 11.07294487 6.11315535 13.23346006 4.125 17.0625 C0.78770532 21.03117475 -1.46799422 22.56239007 -6.625 23.3125 C-11.35425851 22.64874442 -12.84431791 21.15568209 -16.1875 17.8125 C-18.16573694 13.85602612 -17.75237734 9.1142582 -17.1875 4.8125 C-12.63045657 -1.3456668 -7.12800795 -2.65553237 0 0 Z " fill="#F2F4F5" transform="translate(294.1875,651.1875)"/>
<path d="M0 0 C10.56 0 21.12 0 32 0 C31.01 0.495 31.01 0.495 30 1 C30 1.66 30 2.32 30 3 C29.05898438 3.4125 28.11796875 3.825 27.1484375 4.25 C20.32657069 7.36953336 15.0097775 9.83495968 11.015625 16.49609375 C10.68046875 16.99238281 10.3453125 17.48867188 10 18 C9.34 18 8.68 18 8 18 C6.03484023 21.78117795 4.52934672 25.68743919 3 29.66015625 C2 32 2 32 0 35 C0 23.45 0 11.9 0 0 Z " fill="#010102" transform="translate(0,0)"/>
<path d="M0 0 C2.5625 0.25 2.5625 0.25 5 1 C7.22888246 5.45776491 6.22992729 11.5422677 6.25 16.4375 C6.270625 17.69111328 6.29125 18.94472656 6.3125 20.23632812 C6.31765625 21.43580078 6.3228125 22.63527344 6.328125 23.87109375 C6.3374707 24.97380615 6.34681641 26.07651855 6.35644531 27.21264648 C6 30 6 30 4.61230469 31.89477539 C3 33 3 33 0.875 32.8125 C-1 32 -1 32 -2 30 C-2.24487459 25.33791703 -2.18520286 20.66778632 -2.1875 16 C-2.19974609 14.6903125 -2.21199219 13.380625 -2.22460938 12.03125 C-2.22654297 10.7834375 -2.22847656 9.535625 -2.23046875 8.25 C-2.23457764 7.10015625 -2.23868652 5.9503125 -2.24291992 4.765625 C-2 2 -2 2 0 0 Z " fill="#08141C" transform="translate(441,695)"/>
<path d="M0 0 C1.65 1.65 3.3 3.3 5 5 C4.34 5 3.68 5 3 5 C2.690625 5.639375 2.38125 6.27875 2.0625 6.9375 C1 9 1 9 0 10 C1.98 10.66 3.96 11.32 6 12 C5.34 12.66 4.68 13.32 4 14 C4.33 14.66 4.66 15.32 5 16 C4.0925 16.4125 3.185 16.825 2.25 17.25 C-0.98486801 18.74700369 -0.98486801 18.74700369 -2.75 21 C-6.22010872 24.08454108 -10.46010783 25.2215249 -15 26 C-17.3125 25.57421875 -17.3125 25.57421875 -19 25 C-18.43152344 24.39414062 -17.86304688 23.78828125 -17.27734375 23.1640625 C-10.6254588 15.94582341 -4.99311602 8.44643877 0 0 Z " fill="#09151B" transform="translate(667,284)"/>
<path d="M0 0 C3.1875 2.3125 3.1875 2.3125 5 5 C5 5.99 5 6.98 5 8 C3.41701974 8.4803318 1.83360022 8.95921612 0.25 9.4375 C-0.63171875 9.70433594 -1.5134375 9.97117187 -2.421875 10.24609375 C-7.15392951 11.6298612 -11.01658879 12.09583483 -16 12 C-16.75 9.3125 -16.75 9.3125 -17 6 C-12.6337241 -0.77525571 -7.63848054 -1.00158751 0 0 Z " fill="#16232B" transform="translate(525,690)"/>
<path d="M0 0 C3.1875 1.75 3.1875 1.75 5 4 C5 5.32 5 6.64 5 8 C-1.26884583 10.72044253 -7.13919654 11.9537993 -14 12 C-14.66 11.67 -15.32 11.34 -16 11 C-16.44359263 7.18510342 -16.26035293 5.41297361 -14.1875 2.125 C-9.55007978 -0.96661348 -5.42119383 -0.88592223 0 0 Z " fill="#132129" transform="translate(648,690)"/>
<path d="M0 0 C1.25190641 4.25648179 0.91502155 6.9875739 -1 11 C-3.18096612 11.95417268 -4.64182234 12 -7 12 C-7.226875 13.11375 -7.45375 14.2275 -7.6875 15.375 C-8.3371875 17.169375 -8.3371875 17.169375 -9 19 C-11.5625 20.1875 -11.5625 20.1875 -14 21 C-14.88693303 23.04105639 -14.88693303 23.04105639 -15 25 C-16.32 24.67 -17.64 24.34 -19 24 C-19.64916992 22.18896484 -19.64916992 22.18896484 -20 20 C-18.17264212 17.6851473 -16.39050948 15.69110794 -14.3125 13.625 C-9.66727215 8.9298696 -9.66727215 8.9298696 -5.73046875 3.6484375 C-3.89296775 0.83618992 -3.33511829 0 0 0 Z " fill="#0A161C" transform="translate(679,308)"/>
<path d="M0 0 C5.96123203 -0.78437264 11.20768121 1.57046866 16 5 C16.79296875 7.171875 16.79296875 7.171875 17 9 C12.44573816 11.66590937 9.26053037 12.31563182 4 12 C3.67 11.01 3.34 10.02 3 9 C2.01 8.67 1.02 8.34 0 8 C-1.125 2.25 -1.125 2.25 0 0 Z " fill="#0F191F" transform="translate(872,716)"/>
<path d="M0 0 C3.69318093 3.53546502 6.83104809 7.26425095 9.875 11.375 C13.59820981 16.31062722 17.46535141 20.78172224 22 25 C27 30 27 30 28.4765625 31.546875 C32.92046296 36.13820344 37.73362934 40.11749135 42.7421875 44.08203125 C45 46 45 46 46 48 C44.68 47.67 43.36 47.34 42 47 C42 46.34 42 45.68 42 45 C39.6569938 43.73838128 37.58583849 42.88783126 35 42.1875 C31.39493496 40.76049509 30.21129022 39.12630686 28 36 C27.525625 35.525625 27.05125 35.05125 26.5625 34.5625 C25 33 25 33 22.5625 30.0625 C20.20970597 27.13847796 20.20970597 27.13847796 18.1796875 25.25 C14.82678167 21.78893592 12.02804054 17.90713771 9.15429688 14.04492188 C6.37563252 10.41366874 3.99111713 8.3257589 0 6 C-0.3125 2.8125 -0.3125 2.8125 0 0 Z " fill="#B8BBBC" transform="translate(331,252)"/>
<path d="M0 0 C1.48306641 0.09087891 1.48306641 0.09087891 2.99609375 0.18359375 C19.31822766 1.13271046 35.65824376 1.54512788 52 2 C51.67 2.66 51.34 3.32 51 4 C45.29121759 5.19823374 39.56539387 5.19167061 33.75 5.1875 C32.82356689 5.18814453 31.89713379 5.18878906 30.94262695 5.18945312 C24.46591283 5.13944428 18.29027403 4.64990794 12 3 C11.67 3.66 11.34 4.32 11 5 C11 4.34 11 3.68 11 3 C10.01 3.66 9.02 4.32 8 5 C4.3125 4.625 4.3125 4.625 1 4 C0.67 2.68 0.34 1.36 0 0 Z " fill="#060D12" transform="translate(389,554)"/>
<path d="M0 0 C0.66 0 1.32 0 2 0 C1.56857074 5.39286575 0.47889394 8.80486318 -3 13 C-3.99 13 -4.98 13 -6 13 C-6 12.01 -6 11.02 -6 10 C-7.32 10.99 -8.64 11.98 -10 13 C-10.495 12.67 -10.99 12.34 -11.5 12 C-15.09090894 10.56363642 -18.14456127 10.87148538 -22 11 C-22 10.34 -22 9.68 -22 9 C-21.36908447 8.76289307 -20.73816895 8.52578613 -20.08813477 8.28149414 C-17.24519405 7.21129388 -14.40383542 6.13695457 -11.5625 5.0625 C-10.56927734 4.68931641 -9.57605469 4.31613281 -8.55273438 3.93164062 C-7.60849609 3.57392578 -6.66425781 3.21621094 -5.69140625 2.84765625 C-4.81685791 2.51773682 -3.94230957 2.18781738 -3.04125977 1.84790039 C-1.04282248 1.17007683 -1.04282248 1.17007683 0 0 Z " fill="#B5B8BA" transform="translate(676,300)"/>
<path d="M0 0 C3.63 0 7.26 0 11 0 C11 16.83 11 33.66 11 51 C10.34 50.67 9.68 50.34 9 50 C8.67 34.82 8.34 19.64 8 4 C5.36 3.34 2.72 2.68 0 2 C0 1.34 0 0.68 0 0 Z " fill="#2E363C" transform="translate(123,693)"/>
<path d="M0 0 C1.0828125 0.37125 1.0828125 0.37125 2.1875 0.75 C1.1975 1.245 1.1975 1.245 0.1875 1.75 C-0.46805119 4.27733235 -0.46805119 4.27733235 -0.8125 6.75 C-1.4725 6.75 -2.1325 6.75 -2.8125 6.75 C-3.1425 7.74 -3.4725 8.73 -3.8125 9.75 C-7.6875 7.875 -7.6875 7.875 -8.8125 6.75 C-8.8125 8.07 -8.8125 9.39 -8.8125 10.75 C-9.369375 10.976875 -9.92625 11.20375 -10.5 11.4375 C-13.44496684 13.10896766 -15.49406544 15.30276352 -17.8125 17.75 C-18.4725 17.42 -19.1325 17.09 -19.8125 16.75 C-19.50296481 13.65464807 -18.78323546 12.7221103 -16.484375 10.53125 C-15.52015625 9.7784375 -14.5559375 9.025625 -13.5625 8.25 C-12.60859375 7.4971875 -11.6546875 6.744375 -10.671875 5.96875 C-9.72828125 5.2365625 -8.7846875 4.504375 -7.8125 3.75 C-6.48412109 2.61304688 -6.48412109 2.61304688 -5.12890625 1.453125 C-2.8125 -0.25 -2.8125 -0.25 0 0 Z " fill="#0A1218" transform="translate(583.8125,502.25)"/>
<path d="M0 0 C5.76190476 3.79761905 5.76190476 3.79761905 7.875 5.59375 C10.43698056 7.28917831 12.20509653 7.4871774 15.25 7.6875 C16.14203125 7.75324219 17.0340625 7.81898438 17.953125 7.88671875 C18.62859375 7.92410156 19.3040625 7.96148438 20 8 C19.01171875 9.48828125 19.01171875 9.48828125 17 11 C14.18872957 11.21714241 11.6116655 11.28284276 8.8125 11.1875 C7.68811523 11.16719727 7.68811523 11.16719727 6.54101562 11.14648438 C4.69370233 11.11118539 2.84675934 11.05737917 1 11 C1 11.66 1 12.32 1 13 C0.34 13 -0.32 13 -1 13 C-0.9278125 12.22914063 -0.855625 11.45828125 -0.78125 10.6640625 C-0.64203125 9.15972656 -0.64203125 9.15972656 -0.5 7.625 C-0.4071875 6.62726562 -0.314375 5.62953125 -0.21875 4.6015625 C0.02792947 2.10296264 0.02792947 2.10296264 0 0 Z " fill="#101D24" transform="translate(274,666)"/>
<path d="M0 0 C6.93 0 13.86 0 21 0 C15.2532008 2.8733996 11.34447099 3.10574118 5 3 C5 2.34 5 1.68 5 1 C3.68 1 2.36 1 1 1 C1.33 1.99 1.66 2.98 2 4 C2.05909758 5.45870088 2.05936379 6.92022634 2.02172852 8.37963867 C2.00163223 9.26032516 1.98153595 10.14101166 1.96083069 11.04838562 C1.93379562 11.99534805 1.90676056 12.94231049 1.87890625 13.91796875 C1.85529526 14.89034988 1.83168427 15.86273102 1.80735779 16.86457825 C1.73074376 19.97236817 1.64670945 23.0799075 1.5625 26.1875 C1.50927707 28.2936075 1.45653668 30.39972726 1.40429688 32.50585938 C1.27513159 37.67073181 1.1393108 42.83539166 1 48 C0.67 48 0.34 48 0 48 C0 32.16 0 16.32 0 0 Z " fill="#E5E9EC" transform="translate(421,676)"/>
<path d="M0 0 C1.65 0.33 3.3 0.66 5 1 C5 1.66 5 2.32 5 3 C6.73575649 3.87436418 6.73575649 3.87436418 9 4 C11.75256794 2.14835964 11.75256794 2.14835964 14 0 C14.99 1.32 15.98 2.64 17 4 C16.34 4 15.68 4 15 4 C14.34 5.65 13.68 7.3 13 9 C12.34 9 11.68 9 11 9 C11.33 9.99 11.66 10.98 12 12 C6.375 15 6.375 15 3 15 C3.78375 14.401875 4.5675 13.80375 5.375 13.1875 C8.14574323 11.08914751 8.14574323 11.08914751 10 8 C10.66 8 11.32 8 12 8 C12 7.34 12 6.68 12 6 C10.989375 6.061875 9.97875 6.12375 8.9375 6.1875 C4.44500628 5.97357173 1.98914039 4.95386468 -2 3 C-1.34 2.01 -0.68 1.02 0 0 Z " fill="#9C9E9F" transform="translate(407,480)"/>
<path d="M0 0 C0.33 0 0.66 0 1 0 C1.02505615 0.86802246 1.0501123 1.73604492 1.07592773 2.63037109 C1.17099484 5.84713163 1.27023203 9.06372849 1.37231445 12.28027344 C1.41565846 13.6731259 1.45733396 15.06603131 1.49731445 16.45898438 C1.55502932 18.45976651 1.61921869 20.46035859 1.68359375 22.4609375 C1.72025146 23.66540527 1.75690918 24.86987305 1.79467773 26.11083984 C1.81052987 28.93996367 1.81052987 28.93996367 3 31 C2.505 32.485 2.505 32.485 2 34 C2 34.99 2 35.98 2 37 C0.35 37 -1.3 37 -3 37 C-2.01 36.505 -2.01 36.505 -1 36 C-1.00523682 35.08710205 -1.01047363 34.1742041 -1.01586914 33.23364258 C-1.03295631 29.83243167 -1.0454722 26.43126669 -1.05493164 23.0300293 C-1.05994669 21.56062091 -1.06676033 20.09121748 -1.07543945 18.62182617 C-1.08762928 16.50438205 -1.09325669 14.38700417 -1.09765625 12.26953125 C-1.10289307 10.99698486 -1.10812988 9.72443848 -1.11352539 8.41333008 C-1.01539606 5.4629081 -0.69063835 2.86053325 0 0 Z " fill="#0B1A1F" transform="translate(156,707)"/>
<path d="M0 0 C2.5625 0.25 2.5625 0.25 5 1 C6.38308781 3.76617563 6.11210196 6.01018 6.09765625 9.1015625 C6.09443359 10.31328125 6.09121094 11.525 6.08789062 12.7734375 C6.07951172 14.04445313 6.07113281 15.31546875 6.0625 16.625 C6.05798828 17.90375 6.05347656 19.1825 6.04882812 20.5 C6.03701203 23.66671292 6.02053815 26.83333356 6 30 C5.67 30 5.34 30 5 30 C5 23.07 5 16.14 5 9 C2.69 8.67 0.38 8.34 -2 8 C-2.125 5.125 -2.125 5.125 -2 2 C-1.34 1.34 -0.68 0.68 0 0 Z " fill="#373E44" transform="translate(441,695)"/>
<path d="M0 0 C0.66 0.99 1.32 1.98 2 3 C1.34 3 0.68 3 0 3 C-0.02470696 8.35684878 -0.04286331 13.71366444 -0.05493164 19.07055664 C-0.0599624 20.89315366 -0.06678769 22.71574665 -0.07543945 24.53833008 C-0.08755997 27.15707394 -0.09324086 29.77576447 -0.09765625 32.39453125 C-0.10281754 33.21025101 -0.10797882 34.02597076 -0.11329651 34.8664093 C-0.1136246 38.17013929 -0.05225621 40.84323138 1 44 C-0.4375 46.1875 -0.4375 46.1875 -2 48 C-2.050652 41.64627481 -2.08571322 35.29260156 -2.10986328 28.9387207 C-2.11992951 26.77659153 -2.13358354 24.614476 -2.15087891 22.45239258 C-2.17509978 19.34713375 -2.18647681 16.2420547 -2.1953125 13.13671875 C-2.20563507 12.16788254 -2.21595764 11.19904633 -2.22659302 10.20085144 C-2.22674408 9.3001442 -2.22689514 8.39943695 -2.22705078 7.47143555 C-2.231492 6.67867722 -2.23593323 5.88591888 -2.24050903 5.06913757 C-2 3 -2 3 0 0 Z " fill="#021017" transform="translate(302,675)"/>
<path d="M0 0 C7.59 0 15.18 0 23 0 C23 0.33 23 0.66 23 1 C10.17585293 3.26031166 -2.45124448 3.23411955 -15.4375 3.125 C-17.53710508 3.11494395 -19.63671485 3.10582277 -21.73632812 3.09765625 C-26.82433701 3.07586496 -31.91211512 3.04148166 -37 3 C-37 2.67 -37 2.34 -37 2 C-24.79 2 -12.58 2 0 2 C0 1.34 0 0.68 0 0 Z " fill="#808185" transform="translate(445,553)"/>
<path d="M0 0 C-8.85832917 7.73807209 -28.88552814 4.09258499 -40 4 C-40 3.67 -40 3.34 -40 3 C-35.58965421 2.56785354 -31.17885222 2.14080122 -26.76757812 1.71826172 C-25.27005019 1.57411982 -23.77265055 1.42863801 -22.27539062 1.28173828 C-20.11100907 1.06962889 -17.94619679 0.86250077 -15.78125 0.65625 C-13.8331543 0.46772461 -13.8331543 0.46772461 -11.84570312 0.27539062 C-7.87000298 -0.00930908 -3.98360433 -0.04650122 0 0 Z " fill="#B9BDC0" transform="translate(366,514)"/>
<path d="M0 0 C0.33 1.32 0.66 2.64 1 4 C0.34 4 -0.32 4 -1 4 C-0.34 5.65 0.32 7.3 1 9 C-6.42857143 11.42857143 -6.42857143 11.42857143 -10 10 C-9.52723148 5.74508335 -7.07452523 3.77457155 -4 1 C-2 0 -2 0 0 0 Z " fill="#0B171C" transform="translate(607,478)"/>
<path d="M0 0 C3.65316671 1.24976756 4.78065836 1.67098753 7 5 C6.625 7.1875 6.625 7.1875 6 9 C0.25 10.125 0.25 10.125 -2 9 C-2.25 3.375 -2.25 3.375 0 0 Z M7 4 C9 5 9 5 9 5 Z " fill="#121C22" transform="translate(634,692)"/>
<path d="M0 0 C3.69305461 3.53534409 6.83206605 7.26357786 9.875 11.375 C13.20999372 15.81457365 16.59777385 19.88644872 20.72265625 23.6328125 C22 25 22 25 23 28 C17.28083912 26.65431509 15.19664819 22.515545 12 18 C10.64071396 16.19638255 9.26531454 14.40480896 7.875 12.625 C6.91207031 11.37589844 6.91207031 11.37589844 5.9296875 10.1015625 C4.03374114 8.03674643 2.57428131 7.04115377 0 6 C0 4.02 0 2.04 0 0 Z " fill="#C8CDCF" transform="translate(331,252)"/>
<path d="M0 0 C3.91939465 3.80411834 7.49102731 7.81576108 11 12 C9.02 12.99 9.02 12.99 7 14 C0.33653596 9.09374189 0.33653596 9.09374189 -1 4.75 C-1 2 -1 2 0 0 Z " fill="#1C252D" transform="translate(693,727)"/>
<path d="M0 0 C2.28814723 2.28814723 2.75451161 3.80751622 3.6875 6.875 C3.95949219 7.73867188 4.23148437 8.60234375 4.51171875 9.4921875 C5.01692938 12.08694932 4.85561171 13.530785 4 16 C3.01 15.67 2.02 15.34 1 15 C1 14.34 1 13.68 1 13 C-0.32 12.67 -1.64 12.34 -3 12 C-2.01 8.04 -1.02 4.08 0 0 Z " fill="#2B2D31" transform="translate(362,702)"/>
<path d="M0 0 C2.3431213 0.25561323 4.67843403 0.59270772 7 1 C7.33 1.66 7.66 2.32 8 3 C7.34 3 6.68 3 6 3 C6 4.65 6 6.3 6 8 C3.5332355 8.88336837 2.36140628 9.1312406 -0.140625 8.22265625 C-0.83671875 7.83980469 -1.5328125 7.45695313 -2.25 7.0625 C-2.95640625 6.68222656 -3.6628125 6.30195312 -4.390625 5.91015625 C-4.92171875 5.60980469 -5.4528125 5.30945313 -6 5 C-5.01 4.01 -4.02 3.02 -3 2 C-2.01 2.33 -1.02 2.66 0 3 C0 2.01 0 1.02 0 0 Z " fill="#A1A1A1" transform="translate(329,528)"/>
<path d="M0 0 C3.5 0.1875 3.5 0.1875 5.5 1.1875 C5.17 3.1675 4.84 5.1475 4.5 7.1875 C3.84 7.1875 3.18 7.1875 2.5 7.1875 C2.5 6.5275 2.5 5.8675 2.5 5.1875 C0.19 5.8475 -2.12 6.5075 -4.5 7.1875 C-5.125 4.8125 -5.125 4.8125 -5.5 2.1875 C-3.5 0.1875 -3.5 0.1875 0 0 Z " fill="#212C33" transform="translate(879.5,689.8125)"/>
<path d="M0 0 C5.03405033 0.47194222 9.48120657 2.88335384 14 5 C14 5.33 14 5.66 14 6 C7.4 6 0.8 6 -6 6 C-2 4 -2 4 0 4 C-0.33 3.01 -0.66 2.02 -1 1 C-0.67 0.67 -0.34 0.34 0 0 Z " fill="#080E12" transform="translate(362,411)"/>
<path d="M0 0 C1.32 0.66 2.64 1.32 4 2 C2.83242263 5.32310483 1.85051143 7.83361132 -1 10 C-1.99 10 -2.98 10 -4 10 C-4.66 10.66 -5.32 11.32 -6 12 C-6.375 8.8125 -6.375 8.8125 -6 5 C-4.18811972 2.8596502 -2.34198833 1.61011698 0 0 Z " fill="#081319" transform="translate(653,333)"/>
<path d="M0 0 C0.66 0.33 1.32 0.66 2 1 C2 1.66 2 2.32 2 3 C2.66 3 3.32 3 4 3 C4.144375 3.928125 4.28875 4.85625 4.4375 5.8125 C4.92100111 9.00725111 4.92100111 9.00725111 6 12 C6.11740122 13.684571 6.17506545 15.37388877 6.1875 17.0625 C6.20167969 17.94035156 6.21585938 18.81820312 6.23046875 19.72265625 C6 22 6 22 4 24 C3.96132813 22.98292969 3.96132813 22.98292969 3.921875 21.9453125 C3.54084053 15.69288325 2.41330084 10.76756317 -0.2578125 5.09375 C-1 3 -1 3 0 0 Z " fill="#111F24" transform="translate(754,690)"/>
<path d="M0 0 C1.32 0.33 2.64 0.66 4 1 C3 3 3 3 0.9375 4.375 C0.298125 4.91125 -0.34125 5.4475 -1 6 C-1 7.32 -1 8.64 -1 10 C-3.23024586 12.58996293 -4.88802612 13.88099276 -8.3359375 14.25 C-10.57128893 14.25 -12.77194418 14.17474948 -15 14 C-15 13.67 -15 13.34 -15 13 C-12.69 12.34 -10.38 11.68 -8 11 C-8.33 10.34 -8.66 9.68 -9 9 C-8.071875 8.443125 -7.14375 7.88625 -6.1875 7.3125 C-3.0580593 5.04212145 -1.70245949 3.40491897 0 0 Z " fill="#273133" transform="translate(300,664)"/>
<path d="M0 0 C2.26713917 1.09158553 4.41169752 2.25103508 6.5625 3.5625 C9.00654778 5.11858764 9.00654778 5.11858764 12 6 C12.99 7.485 12.99 7.485 14 9 C13.67 9.99 13.34 10.98 13 12 C10.68367725 10.71481447 8.37203058 9.42228734 6.0625 8.125 C5.0734668 7.57779297 5.0734668 7.57779297 4.06445312 7.01953125 C-0.88671875 4.2265625 -0.88671875 4.2265625 -2 2 C-1.34 2 -0.68 2 0 2 C0 1.34 0 0.68 0 0 Z " fill="#9D9EA0" transform="translate(385,468)"/>
<path d="M0 0 C1.32 0 2.64 0 4 0 C5.33650858 4.00952575 5.20225023 7.82016197 5 12 C3 14 3 14 0.5625 14.4375 C-2.2640517 15.05796257 -3.19092843 15.81007125 -5 18 C-4.27173981 13.74247888 -2.13022004 11.77257331 0.8203125 8.78125 C2.2332658 7.06872665 2.2332658 7.06872665 1.7421875 4.96875 C1.49726562 4.3190625 1.25234375 3.669375 1 3 C0.67 2.01 0.34 1.02 0 0 Z " fill="#071117" transform="translate(547,722)"/>
<path d="M0 0 C0.33 0 0.66 0 1 0 C1.36794425 7.4815331 1.36794425 7.4815331 -0.375 9.9375 C-8.77645484 15.43075893 -23.16361412 13.11364246 -33 13 C-33 12.67 -33 12.34 -33 12 C-18.645 11.01 -18.645 11.01 -4 10 C-3.67 9.01 -3.34 8.02 -3 7 C-2.34 7 -1.68 7 -1 7 C-0.67 4.69 -0.34 2.38 0 0 Z " fill="#BBC0C3" transform="translate(550,700)"/>
<path d="M0 0 C0.33 0 0.66 0 1 0 C2.20645978 4.82583913 3.54737014 10.3577398 0.91796875 14.84765625 C-0.4375 16.5 -0.4375 16.5 -3 19 C-3.33 19 -3.66 19 -4 19 C-4.22937511 14.28347435 -3.46206455 10.6025727 -2 6.125 C-1.62875 4.97257813 -1.2575 3.82015625 -0.875 2.6328125 C-0.58625 1.76398437 -0.2975 0.89515625 0 0 Z " fill="#0C191F" transform="translate(404,691)"/>
<path d="M0 0 C3.1875 1.75 3.1875 1.75 5 4 C5 5.32 5 6.64 5 8 C4.01 8.33 3.02 8.66 2 9 C1.67 7.35 1.34 5.7 1 4 C-0.32 3.67 -1.64 3.34 -3 3 C-3 2.34 -3 1.68 -3 1 C-4.97536745 1.34786708 -4.97536745 1.34786708 -7 2 C-7.33 2.66 -7.66 3.32 -8 4 C-8.66 4 -9.32 4 -10 4 C-10.33 4.66 -10.66 5.32 -11 6 C-11.66 4.35 -12.32 2.7 -13 1 C-9.05950471 -0.97024765 -4.29551254 -0.45183345 0 0 Z " fill="#1D252B" transform="translate(648,690)"/>
<path d="M0 0 C1.65 0 3.3 0 5 0 C5 0.66 5 1.32 5 2 C5.66 2.33 6.32 2.66 7 3 C6.690625 3.598125 6.38125 4.19625 6.0625 4.8125 C4.89790296 7.08956772 4.89790296 7.08956772 4 10 C2.35 9.67 0.7 9.34 -1 9 C-1.33 7.68 -1.66 6.36 -2 5 C-1.34 5 -0.68 5 0 5 C0 3.35 0 1.7 0 0 Z " fill="#07161C" transform="translate(673,726)"/>
<path d="M0 0 C2.05078125 0.03255208 4.1015625 0.06510417 6.15234375 0.09765625 C5.5968368 3.69671533 4.40347127 5.09675424 1.58984375 7.34765625 C0.94917969 7.8684375 0.30851563 8.38921875 -0.3515625 8.92578125 C-0.84527344 9.3125 -1.33898437 9.69921875 -1.84765625 10.09765625 C-2.91959104 6.88185187 -2.99401679 4.46394876 -2.84765625 1.09765625 C-1.84765625 0.09765625 -1.84765625 0.09765625 0 0 Z " fill="#AAADAD" transform="translate(578.84765625,495.90234375)"/>
<path d="M0 0 C-0.33 2.64 -0.66 5.28 -1 8 C-3.31 7.67 -5.62 7.34 -8 7 C-8.33 7.99 -8.66 8.98 -9 10 C-9.99 9.67 -10.98 9.34 -12 9 C-9.76253814 4.26184546 -5.63204527 0 0 0 Z " fill="#0A1318" transform="translate(561,519)"/>
<path d="M0 0 C0.66 0.66 1.32 1.32 2 2 C1.5359375 3.175625 1.5359375 3.175625 1.0625 4.375 C-0.26335807 8.89851578 -0.64811085 13.31431814 -1 18 C-2.32 17.34 -3.64 16.68 -5 16 C-5.82200425 9.75276774 -2.92551394 5.28682163 0 0 Z " fill="#0A151A" transform="translate(632,430)"/>
<path d="M0 0 C5.06998019 0.65419099 9.41990777 2.8546409 14 5 C13.67 5.66 13.34 6.32 13 7 C9.04 6.67 5.08 6.34 1 6 C0 2 0 2 0 0 Z " fill="#081115" transform="translate(328,536)"/>
<path d="M0 0 C-0.33 0.99 -0.66 1.98 -1 3 C-1.99 3.33 -2.98 3.66 -4 4 C-4.99 4.66 -5.98 5.32 -7 6 C-10.37494032 5.67339287 -12.42357133 4.11635213 -15 2 C-9.77487721 0.53329887 -5.4185766 -0.22577402 0 0 Z " fill="#10151B" transform="translate(481,552)"/>
<path d="M0 0 C5.05255964 0.63156995 9.29593201 2.13459373 14 4 C12.02 4.99 12.02 4.99 10 6 C10 5.34 10 4.68 10 4 C9.34 4 8.68 4 8 4 C8 4.66 8 5.32 8 6 C5.69 6.66 3.38 7.32 1 8 C1.020625 7.05125 1.04125 6.1025 1.0625 5.125 C1.22551826 2.09333717 1.22551826 2.09333717 0 0 Z " fill="#B9BBBA" transform="translate(424,327)"/>
<path d="M0 0 C-0.75 6.75 -0.75 6.75 -3 9 C-3 8.34 -3 7.68 -3 7 C-3.99 7.33 -4.98 7.66 -6 8 C-8.6875 7.0625 -8.6875 7.0625 -11 6 C-8.24029211 2.78034079 -4.3526723 0 0 0 Z " fill="#C5C9C9" transform="translate(678,300)"/>
<path d="M0 0 C3.47781111 3.40355179 6.7444899 6.89917978 9.875 10.625 C10.67679687 11.56601562 11.47859375 12.50703125 12.3046875 13.4765625 C12.86414063 14.30929687 13.42359375 15.14203125 14 16 C13.67 16.99 13.34 17.98 13 19 C11 17 11 17 9.625 14.5 C7.89369457 11.83645318 6.89827555 11.12191312 4 10 C3.34 9.67 2.68 9.34 2 9 C2 7.02 2 5.04 2 3 C1.34 3 0.68 3 0 3 C-0.33 4.32 -0.66 5.64 -1 7 C-0.67 4.69 -0.34 2.38 0 0 Z " fill="#B6B7B8" transform="translate(335,260)"/>
<path d="M0 0 C0.721875 0.268125 1.44375 0.53625 2.1875 0.8125 C1.1975 1.3075 1.1975 1.3075 0.1875 1.8125 C-0.245625 2.7715625 -0.245625 2.7715625 -0.6875 3.75 C-2.06958487 6.28382226 -3.23349662 6.64022574 -5.8125 7.8125 C-7.52171589 9.3537312 -7.52171589 9.3537312 -8.8125 10.8125 C-9.4725 10.4825 -10.1325 10.1525 -10.8125 9.8125 C-5.29411765 -0.35294118 -5.29411765 -0.35294118 0 0 Z " fill="#0C1519" transform="translate(595.8125,490.1875)"/>
<path d="M0 0 C1.875 0.25 1.875 0.25 4 1 C5.25 3.0625 5.25 3.0625 6 5 C5.01 5 4.02 5 3 5 C2.34 6.98 1.68 8.96 1 11 C-0.65 10.67 -2.3 10.34 -4 10 C-2.68 9.67 -1.36 9.34 0 9 C0 8.34 0 7.68 0 7 C-0.99 6.67 -1.98 6.34 -3 6 C-2.34 5.67 -1.68 5.34 -1 5 C-0.34444881 2.47266765 -0.34444881 2.47266765 0 0 Z " fill="#08161E" transform="translate(349,402)"/>
<path d="M0 0 C0.33 0.99 0.66 1.98 1 3 C0.03542166 4.35917857 -0.96854629 5.69084721 -2 7 C-2.70514846 9.14733927 -2.70514846 9.14733927 -3 11 C-4.32 10.67 -5.64 10.34 -7 10 C-7.67578125 8.203125 -7.67578125 8.203125 -8 6 C-6.85546875 4.296875 -6.85546875 4.296875 -5.1875 2.75 C-4.64480469 2.22921875 -4.10210938 1.7084375 -3.54296875 1.171875 C-2 0 -2 0 0 0 Z " fill="#040F15" transform="translate(667,322)"/>
<path d="M0 0 C2.97 0.33 5.94 0.66 9 1 C9 1.66 9 2.32 9 3 C9.66 3 10.32 3 11 3 C11 3.66 11 4.32 11 5 C11.99 5.33 12.98 5.66 14 6 C13.67 6.66 13.34 7.32 13 8 C12.360625 7.731875 11.72125 7.46375 11.0625 7.1875 C7.08797739 5.64635858 3.05115505 4.32390688 -1 3 C-0.67 2.01 -0.34 1.02 0 0 Z " fill="#1E2A30" transform="translate(730,673)"/>
<path d="M0 0 C1.58567839 0.1421701 3.17518632 0.24504041 4.765625 0.31640625 C5.65507812 0.35830078 6.54453125 0.40019531 7.4609375 0.44335938 C8.38132812 0.48267578 9.30171875 0.52199219 10.25 0.5625 C11.18585938 0.60568359 12.12171875 0.64886719 13.0859375 0.69335938 C15.39048641 0.7991805 17.69513839 0.90126557 20 1 C20 1.33 20 1.66 20 2 C9.605 2.495 9.605 2.495 -1 3 C-0.01 4.485 -0.01 4.485 1 6 C0.401875 5.67 -0.19625 5.34 -0.8125 5 C-3.05386471 3.79212012 -3.05386471 3.79212012 -6 4 C-6.33 2.68 -6.66 1.36 -7 0 C-3.73547873 -1.08817376 -3.14282015 -0.86714786 0 0 Z " fill="#07131A" transform="translate(303,515)"/>
<path d="M0 0 C1.85772162 0.08984301 3.71247985 0.24611861 5.5625 0.4375 C7.08037109 0.59025391 7.08037109 0.59025391 8.62890625 0.74609375 C9.80259766 0.87177734 9.80259766 0.87177734 11 1 C11 1.66 11 2.32 11 3 C8 5 8 5 5.3125 4.625 C4.549375 4.41875 3.78625 4.2125 3 4 C3 4.66 3 5.32 3 6 C2.01 5.67 1.02 5.34 0 5 C-0.75 3 -0.75 3 -1 1 C-0.67 0.67 -0.34 0.34 0 0 Z " fill="#0B1518" transform="translate(408,485)"/>
<path d="M0 0 C5.28 0.33 10.56 0.66 16 1 C16 1.33 16 1.66 16 2 C10.06 2.495 10.06 2.495 4 3 C4 3.99 4 4.98 4 6 C3.34 6.66 2.68 7.32 2 8 C1.60235737 9.98821313 1.26224651 11.98944339 1 14 C0.67 14 0.34 14 0 14 C0 9.38 0 4.76 0 0 Z " fill="#071014" transform="translate(551,696)"/>
<path d="M0 0 C0.61875 0.33 1.2375 0.66 1.875 1 C3.91018344 2.14193235 3.91018344 2.14193235 6 2 C5.67 3.98 5.34 5.96 5 8 C5.66 8 6.32 8 7 8 C7 8.66 7 9.32 7 10 C7.66 10.33 8.32 10.66 9 11 C8.01 11.66 7.02 12.32 6 13 C5.0165504 11.56542672 4.03839079 10.12722594 3.0625 8.6875 C2.51722656 7.88699219 1.97195313 7.08648437 1.41015625 6.26171875 C0 4 0 4 -1 1 C-0.67 0.67 -0.34 0.34 0 0 Z " fill="#A3A6A9" transform="translate(353,433)"/>
<path d="M0 0 C3.3125 2 3.3125 2 6 4 C6 4.66 6 5.32 6 6 C4.35 6.66 2.7 7.32 1 8 C0.5978125 6.5459375 0.5978125 6.5459375 0.1875 5.0625 C-0.204375 4.051875 -0.59625 3.04125 -1 2 C-3.94729537 0.84188612 -3.94729537 0.84188612 -7 1 C-7.33 0.34 -7.66 -0.32 -8 -1 C-4.2630782 -2.2456406 -3.4734409 -1.6963316 0 0 Z " fill="#BABBBC" transform="translate(392,309)"/>
<path d="M0 0 C0.33 0 0.66 0 1 0 C1.03738281 1.07378906 1.07476562 2.14757812 1.11328125 3.25390625 C1.17899112 4.6901362 1.24543668 6.12633262 1.3125 7.5625 C1.33505859 8.26697266 1.35761719 8.97144531 1.38085938 9.69726562 C1.63912966 14.79223407 2.86892921 18.37791886 5 23 C5 23.99 5 24.98 5 26 C4.34 26 3.68 26 3 26 C-0.69682764 19.75264787 -1.48460075 15.65944219 -0.75 8.5 C-0.68425781 7.67757812 -0.61851562 6.85515625 -0.55078125 6.0078125 C-0.38763457 4.00343896 -0.19671467 2.0013579 0 0 Z " fill="#41484E" transform="translate(490,702)"/>
<path d="M0 0 C0.66 1.32 1.32 2.64 2 4 C3.32 3.67 4.64 3.34 6 3 C5.67 3.66 5.34 4.32 5 5 C3.68 5 2.36 5 1 5 C-0.485 10.445 -0.485 10.445 -2 16 C-2.33 16 -2.66 16 -3 16 C-3.37952295 9.80112515 -2.8352113 5.5522888 0 0 Z " fill="#19262B" transform="translate(710,699)"/>
<path d="M0 0 C2.475 0.495 2.475 0.495 5 1 C5 2.32 5 3.64 5 5 C5.99 4.67 6.98 4.34 8 4 C8.68707555 6.49064888 9 8.37886292 9 11 C7.68397477 10.38245741 6.37226444 9.75571258 5.0625 9.125 C4.33160156 8.77695312 3.60070312 8.42890625 2.84765625 8.0703125 C1 7 1 7 0 5 C1.32 4.67 2.64 4.34 4 4 C4 3.34 4 2.68 4 2 C2.68 1.34 1.36 0.68 0 0 Z " fill="#9D9F9E" transform="translate(311,520)"/>
<path d="M0 0 C0.66 0 1.32 0 2 0 C1.835 1.11375 1.67 2.2275 1.5 3.375 C0.9544542 6.72032033 0.9544542 6.72032033 1 9 C0.67 9.99 0.34 10.98 0 12 C-1.65 11.67 -3.3 11.34 -5 11 C-4.32902328 6.80639551 -2.1441606 3.59665648 0 0 Z " fill="#0B1519" transform="translate(622,450)"/>
<path d="M0 0 C6.93 0 13.86 0 21 0 C15.2532008 2.8733996 11.34447099 3.10574118 5 3 C5 2.34 5 1.68 5 1 C3.35 1 1.7 1 0 1 C0 0.67 0 0.34 0 0 Z " fill="#BFC4C5" transform="translate(421,676)"/>
<path d="M0 0 C-0.33 2.97 -0.66 5.94 -1 9 C-2.32 8.67 -3.64 8.34 -5 8 C-5.66 8.66 -6.32 9.32 -7 10 C-7 9.01 -7 8.02 -7 7 C-7.99 6.67 -8.98 6.34 -10 6 C-8.52270825 4.99723227 -7.04311423 3.99785546 -5.5625 3 C-4.73878906 2.443125 -3.91507813 1.88625 -3.06640625 1.3125 C-1 0 -1 0 0 0 Z " fill="#B4BABB" transform="translate(672,264)"/>
<path d="M0 0 C6.93 0.495 6.93 0.495 14 1 C11 4 11 4 8.51953125 4.29296875 C7.17955078 4.24076172 7.17955078 4.24076172 5.8125 4.1875 C4.46091797 4.14689453 4.46091797 4.14689453 3.08203125 4.10546875 C2.39496094 4.07066406 1.70789063 4.03585937 1 4 C0.67 2.68 0.34 1.36 0 0 Z " fill="#0A1212" transform="translate(280,673)"/>
<path d="M0 0 C0.66 0.33 1.32 0.66 2 1 C1.34 2.65 0.68 4.3 0 6 C-2.64 6.33 -5.28 6.66 -8 7 C-8 7.66 -8 8.32 -8 9 C-9.32 8.34 -10.64 7.68 -12 7 C-10.04754815 5.80285445 -8.08785003 4.61751926 -6.125 3.4375 C-5.03445313 2.77621094 -3.94390625 2.11492187 -2.8203125 1.43359375 C-1.88960938 0.96050781 -0.95890625 0.48742187 0 0 Z " fill="#A5A9A9" transform="translate(408,496)"/>
<path d="M0 0 C1.6097168 0.07250977 1.6097168 0.07250977 3.25195312 0.14648438 C4.37150391 0.20255859 5.49105469 0.25863281 6.64453125 0.31640625 C8.34125977 0.3947168 8.34125977 0.3947168 10.07226562 0.47460938 C12.86746405 0.60434432 15.66231065 0.73931266 18.45703125 0.87890625 C18.45703125 1.20890625 18.45703125 1.53890625 18.45703125 1.87890625 C9.21703125 2.20890625 -0.02296875 2.53890625 -9.54296875 2.87890625 C-7.59656541 -1.01390042 -3.81766805 -0.18179372 0 0 Z " fill="#0C1719" transform="translate(557.54296875,253.12109375)"/>
<path d="M0 0 C1.5 1.25 1.5 1.25 3 3 C3 4.32 3 5.64 3 7 C3.2981424 8.34164079 3.62243192 9.67851173 4 11 C4.66 11 5.32 11 6 11 C6 11.66 6 12.32 6 13 C5.34 13 4.68 13 4 13 C4.33 14.32 4.66 15.64 5 17 C1.98401393 15.49200696 1.86260957 13.32266466 0.8125 10.1875 C0.44769531 9.12917969 0.08289063 8.07085938 -0.29296875 6.98046875 C-0.98036862 4.08275549 -1.03931179 2.73398578 0 0 Z " fill="#0B191E" transform="translate(799,694)"/>
<path d="M0 0 C4.03321763 1.21934486 7.54269479 2.55954927 11 5 C11 5.66 11 6.32 11 7 C9.1875 7.6875 9.1875 7.6875 7 8 C5.97803008 7.02246356 4.98020375 6.0194119 4 5 C1.39388923 4.27802838 1.39388923 4.27802838 -1 4 C-0.67 2.68 -0.34 1.36 0 0 Z " fill="#0B1418" transform="translate(385,473)"/>
<path d="M0 0 C0.33 2.64 0.66 5.28 1 8 C-0.32 8.99 -1.64 9.98 -3 11 C-3.66 10.34 -4.32 9.68 -5 9 C-4.79354748 5.76557719 -4.54789576 3.6848697 -2.5 1.125 C-1 0 -1 0 0 0 Z " fill="#0A151B" transform="translate(830,717)"/>
<path d="M0 0 C0.66 0 1.32 0 2 0 C2.33 1.65 2.66 3.3 3 5 C2.34 5 1.68 5 1 5 C0.896875 6.11375 0.79375 7.2275 0.6875 8.375 C0.3471875 10.169375 0.3471875 10.169375 0 12 C-0.99 12.66 -1.98 13.32 -3 14 C-3.34615998 8.34605369 -2.43425238 4.96993194 0 0 Z " fill="#0F191F" transform="translate(820,734)"/>
<path d="M0 0 C1.84121215 1.09097798 3.67281256 2.19819251 5.5 3.3125 C6.5209375 3.92738281 7.541875 4.54226563 8.59375 5.17578125 C9.3878125 5.77777344 10.181875 6.37976563 11 7 C11 7.99 11 8.98 11 10 C10.113125 9.525625 9.22625 9.05125 8.3125 8.5625 C5.42957244 7.20262851 3.12389377 6.45939614 0 6 C0 4.02 0 2.04 0 0 Z " fill="#0D171D" transform="translate(856,734)"/>
<path d="M0 0 C0.33 0.99 0.66 1.98 1 3 C-0.32 3 -1.64 3 -3 3 C-3 3.66 -3 4.32 -3 5 C-3.66 5 -4.32 5 -5 5 C-5 5.66 -5 6.32 -5 7 C-5.66 7 -6.32 7 -7 7 C-7 6.34 -7 5.68 -7 5 C-7.99 4.67 -8.98 4.34 -10 4 C-6.83527002 0.53386716 -4.79371499 0 0 0 Z " fill="#070F15" transform="translate(511,544)"/>
<path d="M0 0 C6.93 0 13.86 0 21 0 C21 0.33 21 0.66 21 1 C15.72 1 10.44 1 5 1 C5.66 2.65 6.32 4.3 7 6 C4.50638429 4.79618552 2.31856917 3.54571278 0 2 C0 1.34 0 0.68 0 0 Z " fill="#B8BCBE" transform="translate(303,518)"/>
<path d="M0 0 C1.79379098 0.44994757 3.58498928 0.91024143 5.375 1.375 C6.37273437 1.63023437 7.37046875 1.88546875 8.3984375 2.1484375 C11 3 11 3 13 5 C12.01 5.66 11.02 6.32 10 7 C9.01 6.67 8.02 6.34 7 6 C6.01 6 5.02 6 4 6 C3.67 5.01 3.34 4.02 3 3 C0.99983534 1.79117904 0.99983534 1.79117904 -1 1 C-0.67 0.67 -0.34 0.34 0 0 Z " fill="#081013" transform="translate(343,542)"/>
<path d="M0 0 C0 1.65 0 3.3 0 5 C-2.78823655 6.0326802 -3.8677274 6.04509293 -6.75 5.0625 C-7.4925 4.711875 -8.235 4.36125 -9 4 C-6.31059578 0.90718514 -4.07621501 0 0 0 Z " fill="#96999B" transform="translate(352,538)"/>
<path d="M0 0 C1.5625 1.125 1.5625 1.125 3 3 C2.6875 6.1875 2.6875 6.1875 2 9 C1.34 9 0.68 9 0 9 C-0.66 9.66 -1.32 10.32 -2 11 C-3.25 9.4375 -3.25 9.4375 -4 7 C-2.93237266 4.42998985 -1.53455057 2.3469597 0 0 Z " fill="#A2A7AA" transform="translate(500,290)"/>
<path d="M0 0 C1.72926874 0.31193464 3.45841044 0.62457362 5.1875 0.9375 C6.15042969 1.11152344 7.11335937 1.28554687 8.10546875 1.46484375 C10.74239972 1.9523735 13.3719905 2.46671105 16 3 C16 3.99 16 4.98 16 6 C11.05 5.01 6.1 4.02 1 3 C0.67 2.01 0.34 1.02 0 0 Z " fill="#232D2F" transform="translate(578,254)"/>
<path d="M0 0 C0.33 0.66 0.66 1.32 1 2 C1.66 2 2.32 2 3 2 C3 2.66 3 3.32 3 4 C4.32 4 5.64 4 7 4 C7 4.99 7 5.98 7 7 C4.36 7 1.72 7 -1 7 C-1.625 5.1875 -1.625 5.1875 -2 3 C-1.34 2.01 -0.68 1.02 0 0 Z " fill="#0D191E" transform="translate(360,713)"/>
<path d="M0 0 C-1.32 0.33 -2.64 0.66 -4 1 C-4 1.66 -4 2.32 -4 3 C-9.28 2.67 -14.56 2.34 -20 2 C-20 1.67 -20 1.34 -20 1 C-13.28837062 0.11978631 -6.76594019 -0.11381955 0 0 Z " fill="#040B0F" transform="translate(464,555)"/>
<path d="M0 0 C-0.33 0.99 -0.66 1.98 -1 3 C-0.34 3.33 0.32 3.66 1 4 C-1.64 4.66 -4.28 5.32 -7 6 C-7 4.35 -7 2.7 -7 1 C-3.375 -1.125 -3.375 -1.125 0 0 Z " fill="#9C9E9F" transform="translate(517,537)"/>
<path d="M0 0 C1.65 1.65 3.3 3.3 5 5 C2 7 2 7 -0.6875 6.625 C-1.450625 6.41875 -2.21375 6.2125 -3 6 C-3.33 4.68 -3.66 3.36 -4 2 C-2.68 1.34 -1.36 0.68 0 0 Z " fill="#06141B" transform="translate(715,697)"/>
<path d="M0 0 C0.66 0.66 1.32 1.32 2 2 C4.73434962 2.3063859 7.38279821 2.5113336 10.125 2.625 C10.87910156 2.66367187 11.63320313 2.70234375 12.41015625 2.7421875 C14.27303184 2.83651031 16.13648255 2.91934662 18 3 C18 3.33 18 3.66 18 4 C12.72 4 7.44 4 2 4 C1.67 4.66 1.34 5.32 1 6 C0.01 6 -0.98 6 -2 6 C-2.33 4.68 -2.66 3.36 -3 2 C-2.01 2.33 -1.02 2.66 0 3 C0 2.01 0 1.02 0 0 Z " fill="#202D32" transform="translate(388,672)"/>
<path d="M0 0 C-0.33 0.99 -0.66 1.98 -1 3 C-4.72430357 3.69289369 -8.21083746 4.11144596 -12 4 C-12 3.34 -12 2.68 -12 2 C-7.8794254 0.00214565 -4.54805635 -0.17835515 0 0 Z " fill="#BDC0C2" transform="translate(666,307)"/>
<path d="M0 0 C2.4375 0.3125 2.4375 0.3125 5 1 C5.886875 0.814375 6.77375 0.62875 7.6875 0.4375 C8.8321875 0.2209375 8.8321875 0.2209375 10 0 C10.66 0.66 11.32 1.32 12 2 C10.27192682 2.33895656 8.54248026 2.67091525 6.8125 3 C5.36810547 3.2784375 5.36810547 3.2784375 3.89453125 3.5625 C1.2065794 3.96877612 -1.28771019 4.07933572 -4 4 C-2.3125 1.9375 -2.3125 1.9375 0 0 Z " fill="#888C8F" transform="translate(473,549)"/>
<path d="M0 0 C4.12751449 0.60698743 7.3321148 2.03810791 11 4 C11 4.66 11 5.32 11 6 C8.6875 6.625 8.6875 6.625 6 7 C5.01 6.34 4.02 5.68 3 5 C3 4.34 3 3.68 3 3 C1.54166642 1.37485532 1.54166642 1.37485532 0 0 Z " fill="#B9BCBC" transform="translate(597,262)"/>
<path d="M0 0 C5.75 0.75 5.75 0.75 8 3 C8 3.99 8 4.98 8 6 C5.03 5.01 2.06 4.02 -1 3 C-0.67 2.01 -0.34 1.02 0 0 Z " fill="#1B292E" transform="translate(890,674)"/>
<path d="M0 0 C1.32 0 2.64 0 4 0 C2.82744291 3.33727786 1.81131596 5.77437487 -1 8 C-1.66 8 -2.32 8 -3 8 C-1.125 1.125 -1.125 1.125 0 0 Z " fill="#06141D" transform="translate(300,668)"/>
<path d="M0 0 C1.32 0 2.64 0 4 0 C4 0.66 4 1.32 4 2 C4.99 2 5.98 2 7 2 C6.67 2.99 6.34 3.98 6 5 C5.67 4.34 5.34 3.68 5 3 C2.94729537 4.84188612 2.94729537 4.84188612 2 7 C0 6 0 6 -0.6875 4.0625 C-1 2 -1 2 0 0 Z " fill="#051118" transform="translate(872,716)"/>
<path d="M0 0 C1.65 1.65 3.3 3.3 5 5 C5.33 3.68 5.66 2.36 6 1 C6.33 3.31 6.66 5.62 7 8 C6.01 8.495 6.01 8.495 5 9 C4.34 8.67 3.68 8.34 3 8 C3 7.34 3 6.68 3 6 C1.68 5.67 0.36 5.34 -1 5 C-0.67 3.35 -0.34 1.7 0 0 Z " fill="#2B3338" transform="translate(360,709)"/>
<path d="M0 0 C0.66 0 1.32 0 2 0 C1.67 2.64 1.34 5.28 1 8 C0.34 7.67 -0.32 7.34 -1 7 C-1.99 7 -2.98 7 -4 7 C-2.92598892 4.08482708 -2.22189824 2.22189824 0 0 Z " fill="#0C161A" transform="translate(614,464)"/>
<path d="M0 0 C5.08335725 0.15404113 7.35754718 3.02068432 10.64453125 6.50390625 C11.09183594 6.99761719 11.53914063 7.49132812 12 8 C11.67 8.66 11.34 9.32 11 10 C7.19364503 6.79239749 3.45436433 3.59253891 0 0 Z " fill="#BDC1C3" transform="translate(352,280)"/>
<path d="M0 0 C2 2 2 2 2 4 C2.96885372 5.68496298 3.96986723 7.35178756 5 9 C5.33 9.66 5.66 10.32 6 11 C2.18063472 9.44396229 -0.26044438 7.04395069 -3 4 C-3 3.34 -3 2.68 -3 2 C-2.01 1.34 -1.02 0.68 0 0 Z " fill="#0C181D" transform="translate(349,267)"/>
<path d="M0 0 C6.75 5.75 6.75 5.75 9 8 C6.92446352 8.5534764 5.15634036 9 3 9 C2.01 6.03 1.02 3.06 0 0 Z " fill="#1E252B" transform="translate(498,732)"/>
<path d="M0 0 C-1.32 0.33 -2.64 0.66 -4 1 C-4 1.66 -4 2.32 -4 3 C-1.36 3 1.28 3 4 3 C4 3.33 4 3.66 4 4 C2.56260487 4.02712066 1.12506137 4.04645067 -0.3125 4.0625 C-1.51326172 4.07990234 -1.51326172 4.07990234 -2.73828125 4.09765625 C-5 4 -5 4 -8 3 C-7.67 2.01 -7.34 1.02 -7 0 C-4.3333581 -1.33332095 -2.83319697 -0.67102033 0 0 Z " fill="#3A4649" transform="translate(724,723)"/>
<path d="M0 0 C0.33 1.32 0.66 2.64 1 4 C1.66 4 2.32 4 3 4 C3.1875 6.8125 3.1875 6.8125 3 10 C2.01 10.99 1.02 11.98 0 13 C0 8.71 0 4.42 0 0 Z " fill="#021116" transform="translate(465,700)"/>
<path d="M0 0 C3.77545388 1.09068668 6.47043472 1.9083091 9 5 C8.01 5.66 7.02 6.32 6 7 C5.01 6.67 4.02 6.34 3 6 C2.67 5.34 2.34 4.68 2 4 C2.33 3.34 2.66 2.68 3 2 C2.01 1.67 1.02 1.34 0 1 C0 0.67 0 0.34 0 0 Z " fill="#0B141A" transform="translate(313,528)"/>
<path d="M0 0 C0.66 0 1.32 0 2 0 C2.66 2.97 3.32 5.94 4 9 C1.525 8.01 1.525 8.01 -1 7 C-0.67 4.69 -0.34 2.38 0 0 Z " fill="#0A151B" transform="translate(636,417)"/>
<path d="M0 0 C3 3 3 3 3.25 5.5625 C3 8 3 8 2 10 C1.01 9.67 0.02 9.34 -1 9 C-0.67 6.03 -0.34 3.06 0 0 Z " fill="#0C191F" transform="translate(329,375)"/>
<path d="M0 0 C1.41750563 0.11509661 2.83401169 0.24253658 4.25 0.375 C5.03890625 0.44460938 5.8278125 0.51421875 6.640625 0.5859375 C9.085877 1.01507113 10.84836903 1.78600638 13 3 C9.72814447 4.07310858 7.57052408 3.89263102 4.25 3.0625 C3.45078125 2.86785156 2.6515625 2.67320312 1.828125 2.47265625 C1.22484375 2.31667969 0.6215625 2.16070312 0 2 C0 1.34 0 0.68 0 0 Z " fill="#BEC0BF" transform="translate(583,258)"/>
<path d="M0 0 C1.65 0.33 3.3 0.66 5 1 C4.67 1.99 4.34 2.98 4 4 C3.01 4.33 2.02 4.66 1 5 C-0.20882096 7.00016466 -0.20882096 7.00016466 -1 9 C-1.66 8.67 -2.32 8.34 -3 8 C-2.01 5.36 -1.02 2.72 0 0 Z " fill="#051219" transform="translate(811,759)"/>
<path d="M0 0 C2.78211944 0.37596209 4.5879284 0.67318459 6.8125 2.4375 C8 4 8 4 8 6 C4.51460083 5.35455571 1.97180943 3.89865603 -1 2 C-0.67 1.34 -0.34 0.68 0 0 Z " fill="#1E2A30" transform="translate(867,721)"/>
<path d="M0 0 C1.485 0.99 1.485 0.99 3 2 C3.36328125 4.3125 3.36328125 4.3125 3.3125 7 C3.30863281 7.886875 3.30476562 8.77375 3.30078125 9.6875 C3 12 3 12 1 14 C0.67 9.38 0.34 4.76 0 0 Z " fill="#041115" transform="translate(757,700)"/>
<path d="M0 0 C1.32 0.66 2.64 1.32 4 2 C4.125 5.375 4.125 5.375 4 9 C3.34 9.66 2.68 10.32 2 11 C1.47007308 9.54494642 0.9513211 8.08581873 0.4375 6.625 C0.14746094 5.81289063 -0.14257812 5.00078125 -0.44140625 4.1640625 C-1 2 -1 2 0 0 Z " fill="#0B181E" transform="translate(299,654)"/>
<path d="M0 0 C1.85625 -0.061875 1.85625 -0.061875 3.75 -0.125 C4.79414063 -0.15980469 4.79414063 -0.15980469 5.859375 -0.1953125 C8 0 8 0 12 2 C6.06 2.495 6.06 2.495 0 3 C0 2.01 0 1.02 0 0 Z " fill="#252E30" transform="translate(352,512)"/>
<path d="M0 0 C0.99 1.32 1.98 2.64 3 4 C2.01 4.99 1.02 5.98 0 7 C-1.32 6.34 -2.64 5.68 -4 5 C-2.68 3.35 -1.36 1.7 0 0 Z " fill="#0F191E" transform="translate(658,328)"/>
<path d="M0 0 C1.17571451 3.67410785 1.07366746 7.16929183 1 11 C0.01 11.33 -0.98 11.66 -2 12 C-3.11002992 8.66991025 -2.68516272 7.34016824 -2 4 C-2.33 3.34 -2.66 2.68 -3 2 C-2.01 1.34 -1.02 0.68 0 0 Z " fill="#05151C" transform="translate(359,724)"/>
<path d="M0 0 C1.65 0.99 3.3 1.98 5 3 C4.6875 4.9375 4.6875 4.9375 4 7 C3.01 7.33 2.02 7.66 1 8 C0.34 7.34 -0.32 6.68 -1 6 C-0.34 6 0.32 6 1 6 C0.67 4.02 0.34 2.04 0 0 Z " fill="#21282B" transform="translate(884,719)"/>
<path d="M0 0 C1.5625 1.25 1.5625 1.25 3 3 C2.6875 5.1875 2.6875 5.1875 2 7 C0.68 7 -0.64 7 -2 7 C-2 5.68 -2 4.36 -2 3 C-1.34 3 -0.68 3 0 3 C0 2.01 0 1.02 0 0 Z M3 2 C5 3 5 3 5 3 Z " fill="#08141E" transform="translate(638,694)"/>
<path d="M0 0 C1.5067748 2.79738782 2.48224115 5.40322432 3.1875 8.5 C3.36667969 9.2528125 3.54585938 10.005625 3.73046875 10.78125 C4.01801942 13.14833379 3.72248395 14.74544015 3 17 C-0.03901852 11.17521449 -0.3540919 6.51791392 0 0 Z " fill="#C6CCCF" transform="translate(337,686)"/>
<path d="M0 0 C0.99 0 1.98 0 3 0 C2.38722388 2.96175123 1.74627478 4.38058783 0 7 C-0.16713569 9.62531524 -0.16713569 9.62531524 0 12 C-0.66 12 -1.32 12 -2 12 C-1.85962479 10.18706911 -1.71255111 8.3746557 -1.5625 6.5625 C-1.48128906 5.55316406 -1.40007812 4.54382813 -1.31640625 3.50390625 C-1 1 -1 1 0 0 Z " fill="#E7EBEC" transform="translate(509,689)"/>
<path d="M0 0 C0.99 0.33 1.98 0.66 3 1 C2.34 2.65 1.68 4.3 1 6 C-0.65 5.67 -2.3 5.34 -4 5 C-2.25 1.125 -2.25 1.125 0 0 Z " fill="#070F14" transform="translate(542,529)"/>
<path d="M0 0 C0.99 0.66 1.98 1.32 3 2 C3 2.66 3 3.32 3 4 C1.51882199 3.71872579 0.04006751 3.42466268 -1.4375 3.125 C-2.26121094 2.96257813 -3.08492187 2.80015625 -3.93359375 2.6328125 C-4.61550781 2.42398438 -5.29742188 2.21515625 -6 2 C-6.33 1.34 -6.66 0.68 -7 0 C-4.28569464 -1.35715268 -2.88661718 -0.77445827 0 0 Z " fill="#0E171D" transform="translate(708,740)"/>
<path d="M0 0 C1.32 0 2.64 0 4 0 C4.82638376 2.89234315 5 4.88742431 5 8 C3.68 8.33 2.36 8.66 1 9 C1.20625 8.2575 1.4125 7.515 1.625 6.75 C2.04408751 3.67669159 1.61949011 2.57213134 0 0 Z " fill="#0D191C" transform="translate(547,722)"/>
<path d="M0 0 C0.99 0 1.98 0 3 0 C2.67 1.65 2.34 3.3 2 5 C1.34 5 0.68 5 0 5 C-0.33 5.99 -0.66 6.98 -1 8 C-1.33 8 -1.66 8 -2 8 C-2.125 5.125 -2.125 5.125 -2 2 C-1.34 1.34 -0.68 0.68 0 0 Z " fill="#1E262D" transform="translate(441,695)"/>
<path d="M0 0 C1.43836751 0.11458693 2.87570966 0.24209116 4.3125 0.375 C5.51326172 0.47941406 5.51326172 0.47941406 6.73828125 0.5859375 C9 1 9 1 12 3 C9.47946405 4.26026798 8.1457902 3.91874445 5.375 3.5625 C4.14910156 3.40974609 4.14910156 3.40974609 2.8984375 3.25390625 C2.27195312 3.17011719 1.64546875 3.08632813 1 3 C0.67 2.01 0.34 1.02 0 0 Z " fill="#060C12" transform="translate(356,547)"/>
<path d="M0 0 C-4.67266246 3.58237455 -7.02023637 4.11073636 -13 4 C-8.62615587 1.08410391 -5.29457529 -0.30254716 0 0 Z " fill="#A2A7A6" transform="translate(397,505)"/>
<path d="M0 0 C3.14737182 0.69941596 6.02588876 1.76078698 9 3 C9 3.33 9 3.66 9 4 C6.03 4 3.06 4 0 4 C-0.33 3.34 -0.66 2.68 -1 2 C-0.67 1.34 -0.34 0.68 0 0 Z " fill="#121415" transform="translate(367,413)"/>
<path d="M0 0 C-0.66 0.66 -1.32 1.32 -2 2 C-4.25 1.6875 -4.25 1.6875 -7 1 C-8.99897128 0.66055205 -10.99875639 0.32578384 -13 0 C-13 -0.33 -13 -0.66 -13 -1 C-11.58566794 -1.2236337 -10.16832382 -1.42826476 -8.75 -1.625 C-7.56664062 -1.79902344 -7.56664062 -1.79902344 -6.359375 -1.9765625 C-3.67847541 -2.00319395 -2.27305911 -1.36592084 0 0 Z " fill="#B6B7B8" transform="translate(359,347)"/>
<path d="M0 0 C3.3 0.33 6.6 0.66 10 1 C10.33 1.99 10.66 2.98 11 4 C7.0507432 3.44894091 3.65079826 2.61064629 0 1 C0 0.67 0 0.34 0 0 Z " fill="#B9BAB9" transform="translate(445,334)"/>
<path d="M0 0 C2.31 0 4.62 0 7 0 C6.67 0.99 6.34 1.98 6 3 C5.01 3 4.02 3 3 3 C3 3.66 3 4.32 3 5 C2.01 4.67 1.02 4.34 0 4 C0 2.68 0 1.36 0 0 Z " fill="#0A161A" transform="translate(506,714)"/>
<path d="M0 0 C0.66 0.33 1.32 0.66 2 1 C1.34 3.97 0.68 6.94 0 10 C-0.99 9.34 -1.98 8.68 -3 8 C-2.74438677 5.6568787 -2.40729228 3.32156597 -2 1 C-1.34 0.67 -0.68 0.34 0 0 Z " fill="#1F2A30" transform="translate(228,704)"/>
<path d="M0 0 C-1 3 -1 3 -2.8125 3.9375 C-3.534375 4.288125 -4.25625 4.63875 -5 5 C-6.37086915 6.29470975 -7.71340837 7.62150897 -9 9 C-9.66 8.34 -10.32 7.68 -11 7 C-10.01 6.67 -9.02 6.34 -8 6 C-8 5.34 -8 4.68 -8 4 C-2.58823529 0 -2.58823529 0 0 0 Z " fill="#D5DADB" transform="translate(632,678)"/>
<path d="M0 0 C2.475 0.99 2.475 0.99 5 2 C3.35 3.32 1.7 4.64 0 6 C-0.99 5.01 -1.98 4.02 -3 3 C-2.34 3 -1.68 3 -1 3 C-0.67 2.01 -0.34 1.02 0 0 Z " fill="#9FA4A7" transform="translate(549,520)"/>
<path d="M0 0 C2.64 0 5.28 0 8 0 C7.67 0.99 7.34 1.98 7 3 C3.04 3 -0.92 3 -5 3 C-5 2.67 -5 2.34 -5 2 C-3.35 1.67 -1.7 1.34 0 1 C0 0.67 0 0.34 0 0 Z " fill="#1E292C" transform="translate(477,336)"/>
<path d="M0 0 C2.02907167 3.3146667 2.12742133 5.4315979 1.625 9.25 C1.51414062 10.14203125 1.40328125 11.0340625 1.2890625 11.953125 C1.19367187 12.62859375 1.09828125 13.3040625 1 14 C0.34 14 -0.32 14 -1 14 C-1.027193 12.41676312 -1.04648306 10.83338938 -1.0625 9.25 C-1.07410156 8.36828125 -1.08570313 7.4865625 -1.09765625 6.578125 C-1.00826198 4.2181162 -0.66912821 2.25501476 0 0 Z " fill="#081315" transform="translate(646,372)"/>
<path d="M0 0 C4.75 0.75 4.75 0.75 7 3 C4 5 4 5 1 5 C0.67 3.35 0.34 1.7 0 0 Z " fill="#BDC0BF" transform="translate(321,339)"/>
<path d="M0 0 C0.99 0 1.98 0 3 0 C3 0.99 3 1.98 3 3 C3.66 3.66 4.32 4.32 5 5 C2.33333333 5 -0.33333333 5 -3 5 C-1.125 1.125 -1.125 1.125 0 0 Z " fill="#A1A3A3" transform="translate(646,306)"/>
<path d="M0 0 C-0.66 0.66 -1.32 1.32 -2 2 C-2.66 1.67 -3.32 1.34 -4 1 C-4 1.66 -4 2.32 -4 3 C-5.65 3 -7.3 3 -9 3 C-8.67 2.01 -8.34 1.02 -8 0 C-5.13822943 -1.43088528 -3.06624227 -0.59991697 0 0 Z " fill="#091218" transform="translate(744,741)"/>
<path d="M0 0 C2.1875 -0.3125 2.1875 -0.3125 5 0 C7.8125 2.5 7.8125 2.5 10 5 C7.03 4.505 7.03 4.505 4 4 C3.67 3.01 3.34 2.02 3 1 C2.01 0.67 1.02 0.34 0 0 Z " fill="#E5E9EB" transform="translate(662,722)"/>
<path d="M0 0 C0.33 0.66 0.66 1.32 1 2 C1.66 2.33 2.32 2.66 3 3 C0.69 4.32 -1.62 5.64 -4 7 C-4.66 6.01 -5.32 5.02 -6 4 C-5.34 4 -4.68 4 -4 4 C-3.67 3.01 -3.34 2.02 -3 1 C-3 1.99 -3 2.98 -3 4 C-2.34 3.67 -1.68 3.34 -1 3 C-0.67 2.01 -0.34 1.02 0 0 Z " fill="#D9DDDC" transform="translate(225,718)"/>
<path d="M0 0 C3.96 0 7.92 0 12 0 C11.67 0.99 11.34 1.98 11 3 C10.29875 2.855625 9.5975 2.71125 8.875 2.5625 C5.92443859 1.98521625 2.96729849 1.48304859 0 1 C0 0.67 0 0.34 0 0 Z " fill="#050F17" transform="translate(637,713)"/>
<path d="M0 0 C0.33 0 0.66 0 1 0 C1.1953125 2.05078125 1.390625 4.1015625 1.5859375 6.15234375 C1.72257813 6.76207031 1.85921875 7.37179687 2 8 C2.66 8.33 3.32 8.66 4 9 C2.68 9 1.36 9 0 9 C-0.66 9.99 -1.32 10.98 -2 12 C-2 10.35 -2 8.7 -2 7 C-1.34 7 -0.68 7 0 7 C-0.33 6.01 -0.66 5.02 -1 4 C-0.5625 1.8125 -0.5625 1.8125 0 0 Z " fill="#32383A" transform="translate(552,688)"/>
<path d="M0 0 C1.32 0.33 2.64 0.66 4 1 C2.60755361 3.78489278 0.44008012 5.12301529 -2 7 C-2.66 6.67 -3.32 6.34 -4 6 C-2.68 4.02 -1.36 2.04 0 0 Z " fill="#1D292F" transform="translate(300,664)"/>
<path d="M0 0 C1.45922693 0.11409593 2.91740598 0.24165544 4.375 0.375 C5.59316406 0.47941406 5.59316406 0.47941406 6.8359375 0.5859375 C9 1 9 1 11 3 C8.69 3.33 6.38 3.66 4 4 C3.67 3.34 3.34 2.68 3 2 C2.01 1.34 1.02 0.68 0 0 Z " fill="#030E15" transform="translate(466,554)"/>
<path d="M0 0 C3.3 0.33 6.6 0.66 10 1 C6.1496895 3.56687367 4.41430237 2.83288724 0 2 C0 1.34 0 0.68 0 0 Z " fill="#050B0F" transform="translate(378,552)"/>
<path d="M0 0 C0.99 0 1.98 0 3 0 C2.75 2.375 2.75 2.375 2 5 C-0.0625 6.3125 -0.0625 6.3125 -2 7 C-2.125 4.625 -2.125 4.625 -2 2 C-1.34 1.34 -0.68 0.68 0 0 Z " fill="#A2A5A6" transform="translate(578,499)"/>
<path d="M0 0 C1.65 0.33 3.3 0.66 5 1 C5 2.98 5 4.96 5 7 C3.02 5.35 1.04 3.7 -1 2 C-0.67 1.34 -0.34 0.68 0 0 Z " fill="#A3A4A6" transform="translate(347,393)"/>
<path d="M0 0 C6.75 -0.125 6.75 -0.125 9 1 C9 1.66 9 2.32 9 3 C3.46153846 3.36923077 3.46153846 3.36923077 1.125 1.5 C0.75375 1.005 0.3825 0.51 0 0 Z " fill="#101A1F" transform="translate(443,331)"/>
<path d="M0 0 C1.65 0 3.3 0 5 0 C3.60667426 3.36720387 2.0210714 4.9859524 -1 7 C-1 6.01 -1 5.02 -1 4 C-0.34 4 0.32 4 1 4 C0.67 2.68 0.34 1.36 0 0 Z " fill="#9AA0A1" transform="translate(660,321)"/>
<path d="M0 0 C0.66 0 1.32 0 2 0 C1.25 6.75 1.25 6.75 -1 9 C-1.625 6.1875 -1.625 6.1875 -2 3 C-1.34 2.01 -0.68 1.02 0 0 Z " fill="#BAC2C4" transform="translate(676,300)"/>
<path d="M0 0 C2.46800047 1.15173355 4.04783565 2.04783565 6 4 C5.67 4.99 5.34 5.98 5 7 C2.69 5.35 0.38 3.7 -2 2 C-1.34 1.34 -0.68 0.68 0 0 Z " fill="#1B242A" transform="translate(378,297)"/>
<path d="M0 0 C2.31 0.33 4.62 0.66 7 1 C7 1.99 7 2.98 7 4 C4.69 3.67 2.38 3.34 0 3 C0 2.01 0 1.02 0 0 Z " fill="#05111A" transform="translate(896,740)"/>
<path d="M0 0 C0.99 0.33 1.98 0.66 3 1 C0.6875 3.5 0.6875 3.5 -2 6 C-2.99 6 -3.98 6 -5 6 C-3.86525052 2.59575156 -3.03188696 1.78346291 0 0 Z " fill="#111B1F" transform="translate(745,735)"/>
<path d="M0 0 C0.99 0 1.98 0 3 0 C3 1.98 3 3.96 3 6 C1.68 5.67 0.36 5.34 -1 5 C-0.67 3.35 -0.34 1.7 0 0 Z " fill="#061315" transform="translate(393,730)"/>
<path d="M0 0 C1.98 0 3.96 0 6 0 C6.33 0.99 6.66 1.98 7 3 C4.69 3 2.38 3 0 3 C0 2.01 0 1.02 0 0 Z " fill="#030C10" transform="translate(721,693)"/>
<path d="M0 0 C2.95183101 2.95183101 3.08663988 5.95511947 4 10 C3.01 10.495 3.01 10.495 2 11 C2 10.34 2 9.68 2 9 C1.34 8.67 0.68 8.34 0 8 C0 5.36 0 2.72 0 0 Z " fill="#D5DCDD" transform="translate(792,682)"/>
<path d="M0 0 C0.66 0.33 1.32 0.66 2 1 C1.34 3.64 0.68 6.28 0 9 C-2.1519437 5.77208445 -2.20086443 4.71599191 -2 1 C-1.34 0.67 -0.68 0.34 0 0 Z " fill="#283237" transform="translate(237,677)"/>
<path d="M0 0 C0.66 0.33 1.32 0.66 2 1 C2 5 2 5 0.5 6.75 C0.005 7.1625 -0.49 7.575 -1 8 C-1.93065133 5.39417629 -2.14917407 4.35801776 -1.0625 1.75 C-0.711875 1.1725 -0.36125 0.595 0 0 Z " fill="#A7AAAB" transform="translate(546,520)"/>
<path d="M0 0 C0.99 0.33 1.98 0.66 3 1 C0.6875 3.5 0.6875 3.5 -2 6 C-2.99 6 -3.98 6 -5 6 C-5 5.34 -5 4.68 -5 4 C-2.6875 1.8125 -2.6875 1.8125 0 0 Z " fill="#040D13" transform="translate(602,482)"/>
<path d="M0 0 C1.98 1.65 3.96 3.3 6 5 C4.02 5.99 4.02 5.99 2 7 C0 4 0 4 0 0 Z " fill="#1E262A" transform="translate(369,458)"/>
<path d="M0 0 C0.33 0.66 0.66 1.32 1 2 C-0.1875 4 -0.1875 4 -2 6 C-4.6875 6.25 -4.6875 6.25 -7 6 C-7.33 5.34 -7.66 4.68 -8 4 C-6.35 3.34 -4.7 2.68 -3 2 C-2.67 2.33 -2.34 2.66 -2 3 C-1.34 2.01 -0.68 1.02 0 0 Z " fill="#B6BCBC" transform="translate(617,456)"/>
<path d="M0 0 C2.5 2.3125 2.5 2.3125 5 5 C5 5.99 5 6.98 5 8 C3.5 6.625 3.5 6.625 2 5 C2 4.34 2 3.68 2 3 C1.34 3 0.68 3 0 3 C-0.33 4.32 -0.66 5.64 -1 7 C-0.67 4.69 -0.34 2.38 0 0 Z " fill="#BDBCBD" transform="translate(335,260)"/>
<path d="M0 0 C1.9451 2.91765 2.45276317 4.62537285 3 8 C1.68 8.33 0.36 8.66 -1 9 C-1.125 2.25 -1.125 2.25 0 0 Z " fill="#212B31" transform="translate(329,734)"/>
<path d="M0 0 C2.375 0.3125 2.375 0.3125 5 1 C7 4 7 4 6.625 6.6875 C6.41875 7.450625 6.2125 8.21375 6 9 C5.34 8.67 4.68 8.34 4 8 C3.855625 7.21625 3.71125 6.4325 3.5625 5.625 C2.94615917 2.74874279 2.22271144 1.83615293 0 0 Z " fill="#243033" transform="translate(667,722)"/>
<path d="M0 0 C0.66 0.33 1.32 0.66 2 1 C1.67 2.32 1.34 3.64 1 5 C-0.32 5.33 -1.64 5.66 -3 6 C-3.33 5.34 -3.66 4.68 -4 4 C-3.34 4 -2.68 4 -2 4 C-2 3.34 -2 2.68 -2 2 C-1.34 2 -0.68 2 0 2 C0 1.34 0 0.68 0 0 Z " fill="#293439" transform="translate(444,722)"/>
<path d="M0 0 C-0.99 1.485 -0.99 1.485 -2 3 C-3.32 2.67 -4.64 2.34 -6 2 C-6 2.66 -6 3.32 -6 4 C-6.99 3.67 -7.98 3.34 -9 3 C-7.14340032 -0.71319936 -3.69365381 -0.09982848 0 0 Z " fill="#0C161D" transform="translate(884,691)"/>
<path d="M0 0 C0.99 0 1.98 0 3 0 C3 1.65 3 3.3 3 5 C1.68 5 0.36 5 -1 5 C-0.67 3.35 -0.34 1.7 0 0 Z " fill="#19242C" transform="translate(771,691)"/>
<path d="M0 0 C4.875 4.75 4.875 4.75 6 7 C3.03 6.505 3.03 6.505 0 6 C0 4.02 0 2.04 0 0 Z " fill="#CED3D5" transform="translate(542,681)"/>
<path d="M0 0 C0.99 0.66 1.98 1.32 3 2 C3 3.32 3 4.64 3 6 C1.35 6 -0.3 6 -2 6 C-2.33 5.01 -2.66 4.02 -3 3 C-2.34 3 -1.68 3 -1 3 C-0.67 2.01 -0.34 1.02 0 0 Z " fill="#09131A" transform="translate(550,682)"/>
<path d="M0 0 C0.66 0.66 1.32 1.32 2 2 C1.625 4.625 1.625 4.625 1 7 C0.01 6.34 -0.98 5.68 -2 5 C-1.125 1.125 -1.125 1.125 0 0 Z " fill="#A2A3A6" transform="translate(341,385)"/>
<path d="M0 0 C3.4375 0.8125 3.4375 0.8125 7 2 C7.33 2.99 7.66 3.98 8 5 C4.75791433 4.64950425 3.38472296 4.43778819 1.1875 1.9375 C0.795625 1.298125 0.40375 0.65875 0 0 Z " fill="#BCBFC0" transform="translate(414,322)"/>
<path d="M0 0 C0.66 0 1.32 0 2 0 C2.33 0.99 2.66 1.98 3 3 C2.01 3.99 1.02 4.98 0 6 C-0.99 5.67 -1.98 5.34 -3 5 C-1.625 2.5 -1.625 2.5 0 0 Z " fill="#0C171D" transform="translate(805,770)"/>
<path d="M0 0 C0.33 1.32 0.66 2.64 1 4 C0.34 3.67 -0.32 3.34 -1 3 C-1.33 3.66 -1.66 4.32 -2 5 C-3.32 4.67 -4.64 4.34 -6 4 C-2.25 0 -2.25 0 0 0 Z " fill="#041118" transform="translate(759,723)"/>
<path d="M0 0 C0.99 0 1.98 0 3 0 C2.67 2.64 2.34 5.28 2 8 C0.4375 6.8125 0.4375 6.8125 -1 5 C-0.6875 2.3125 -0.6875 2.3125 0 0 Z " fill="#08151C" transform="translate(851,722)"/>
<path d="M0 0 C0.66 0 1.32 0 2 0 C1.67 2.31 1.34 4.62 1 7 C0.34 7 -0.32 7 -1 7 C-1.625 4.625 -1.625 4.625 -2 2 C-1.34 1.34 -0.68 0.68 0 0 Z " fill="#2C3232" transform="translate(381,705)"/>
<path d="M0 0 C0.99 0.99 1.98 1.98 3 3 C2.67 3.66 2.34 4.32 2 5 C0.68 5 -0.64 5 -2 5 C-2.33 3.68 -2.66 2.36 -3 1 C-2.01 0.67 -1.02 0.34 0 0 Z " fill="#1E242D" transform="translate(734,698)"/>
<path d="M0 0 C1.32 0 2.64 0 4 0 C4 1.65 4 3.3 4 5 C3.01 5.33 2.02 5.66 1 6 C0.67 4.02 0.34 2.04 0 0 Z " fill="#08191C" transform="translate(211,684)"/>
<path d="M0 0 C-0.66 1.65 -1.32 3.3 -2 5 C-3.32 4.67 -4.64 4.34 -6 4 C-5.67 3.01 -5.34 2.02 -5 1 C-3 0 -3 0 0 0 Z " fill="#090F13" transform="translate(528,537)"/>
<path d="M0 0 C0.99 0.66 1.98 1.32 3 2 C1.68 3.32 0.36 4.64 -1 6 C-1.625 4.125 -1.625 4.125 -2 2 C-1.34 1.34 -0.68 0.68 0 0 Z " fill="#060E13" transform="translate(566,514)"/>
<path d="M0 0 C2.86724686 0.57344937 3.8614515 0.8614515 6 3 C5.67 3.99 5.34 4.98 5 6 C2.5 4.6875 2.5 4.6875 0 3 C0 2.01 0 1.02 0 0 Z " fill="#0D1719" transform="translate(373,464)"/>
<path d="M0 0 C0.66 0.66 1.32 1.32 2 2 C1.67 2.99 1.34 3.98 1 5 C-1.0625 5.6875 -1.0625 5.6875 -3 6 C-2.42655063 3.13275314 -2.1385485 2.1385485 0 0 Z " fill="#061217" transform="translate(644,398)"/>
<path d="M0 0 C2.31 0.33 4.62 0.66 7 1 C7.33 1.99 7.66 2.98 8 4 C5.36 3.34 2.72 2.68 0 2 C0 1.34 0 0.68 0 0 Z " fill="#1F2B2E" transform="translate(324,338)"/>
<path d="M0 0 C0.99 0.33 1.98 0.66 3 1 C2.01 2.32 1.02 3.64 0 5 C-1.32 4.67 -2.64 4.34 -4 4 C-2.68 2.68 -1.36 1.36 0 0 Z " fill="#9BA0A0" transform="translate(512,275)"/>
<path d="M0 0 C0.99 0 1.98 0 3 0 C3 0.99 3 1.98 3 3 C4.32 3.66 5.64 4.32 7 5 C6.34 5.66 5.68 6.32 5 7 C3.29115995 5.37660195 1.62553283 3.70680947 0 2 C0 1.34 0 0.68 0 0 Z " fill="#1D2829" transform="translate(617,272)"/>
<path d="M0 0 C1.65 1.65 3.3 3.3 5 5 C4.01 5.66 3.02 6.32 2 7 C1.34 6.67 0.68 6.34 0 6 C0 4.02 0 2.04 0 0 Z " fill="#C6C9CA" transform="translate(331,252)"/>
<path d="M0 0 C2 3 2 3 1.625 5.1875 C1.41875 5.785625 1.2125 6.38375 1 7 C0.34 7 -0.32 7 -1 7 C-1.33 5.02 -1.66 3.04 -2 1 C-1.34 0.67 -0.68 0.34 0 0 Z " fill="#222C31" transform="translate(372,736)"/>
<path d="M0 0 C2.0625 0.4375 2.0625 0.4375 4 1 C4 2.32 4 3.64 4 5 C2.0625 4.6875 2.0625 4.6875 0 4 C-0.33 3.01 -0.66 2.02 -1 1 C-0.67 0.67 -0.34 0.34 0 0 Z " fill="#061218" transform="translate(881,720)"/>
<path d="M0 0 C0.33 0.99 0.66 1.98 1 3 C-6.42857143 3.28571429 -6.42857143 3.28571429 -10 1 C-3.375 0 -3.375 0 0 0 Z " fill="#0A1721" transform="translate(872,719)"/>
<path d="M0 0 C1.32 0 2.64 0 4 0 C4 1.65 4 3.3 4 5 C2.68 4.34 1.36 3.68 0 3 C0 2.01 0 1.02 0 0 Z " fill="#0B1316" transform="translate(361,709)"/>
<path d="M0 0 C1.485 0.99 1.485 0.99 3 2 C3 3.32 3 4.64 3 6 C2.01 6.33 1.02 6.66 0 7 C-1.125 2.25 -1.125 2.25 0 0 Z " fill="#283138" transform="translate(650,692)"/>
<path d="M0 0 C0.66 0.33 1.32 0.66 2 1 C2 2.98 2 4.96 2 7 C1.01 6.67 0.02 6.34 -1 6 C-1.33 4.35 -1.66 2.7 -2 1 C-1.34 0.67 -0.68 0.34 0 0 Z " fill="#07171D" transform="translate(795,680)"/>
<path d="M0 0 C0 0.66 0 1.32 0 2 C-1.63064764 3.05771739 -3.30280873 4.05273046 -5 5 C-5.99 5.66 -6.98 6.32 -8 7 C-7.8125 5.1875 -7.8125 5.1875 -7 3 C-2.82142857 0 -2.82142857 0 0 0 Z " fill="#D7DDDE" transform="translate(511,677)"/>
<path d="M0 0 C1.22589844 0.29197266 1.22589844 0.29197266 2.4765625 0.58984375 C3.41628906 0.82380859 3.41628906 0.82380859 4.375 1.0625 C4.375 1.3925 4.375 1.7225 4.375 2.0625 C0.745 2.0625 -2.885 2.0625 -6.625 2.0625 C-6.625 1.4025 -6.625 0.7425 -6.625 0.0625 C-3.99249612 -1.25375194 -2.82320944 -0.68563658 0 0 Z " fill="#071317" transform="translate(163.625,672.9375)"/>
<path d="M0 0 C2.97 0 5.94 0 9 0 C9 0.66 9 1.32 9 2 C6.21176345 3.0326802 5.1322726 3.04509293 2.25 2.0625 C1.5075 1.711875 0.765 1.36125 0 1 C0 0.67 0 0.34 0 0 Z " fill="#B4B5B7" transform="translate(311,519)"/>
<path d="M0 0 C2.97 0 5.94 0 9 0 C9.33 0.99 9.66 1.98 10 3 C3.375 2.25 3.375 2.25 0 0 Z " fill="#242D32" transform="translate(430,328)"/>
<path d="M0 0 C0 0.99 0 1.98 0 3 C-2.4375 2.625 -2.4375 2.625 -5 2 C-5.33 1.34 -5.66 0.68 -6 0 C-3.50907189 -1.24546405 -2.58919267 -0.7767578 0 0 Z " fill="#BBBCBC" transform="translate(613,270)"/>
</svg>
